SplineFontDB: 3.2
FontName: Homerton-MediumOblique
FullName: Homerton Medium Oblique 
FamilyName: Homerton
Weight: Medium
Copyright: (c) RISC OS Developments Ltd, released under Apache License 2.0
Version: 1
ItalicAngle: 0
UnderlinePosition: 0
UnderlineWidth: 0
Ascent: 400
Descent: 100
InvalidEm: 0
LayerCount: 2
Layer: 0 0 "Back" 1
Layer: 1 0 "Fore" 0
StyleMap: 0x0001
FSType: 0
OS2Version: 0
OS2_WeightWidthSlopeOnly: 0
OS2_UseTypoMetrics: 0
CreationTime: 1653360704
ModificationTime: 1653360705
PfmFamily: 17
TTFWeight: 500
TTFWidth: 5
LineGap: 45
VLineGap: 45
OS2TypoAscent: 0
OS2TypoAOffset: 1
OS2TypoDescent: 0
OS2TypoDOffset: 1
OS2TypoLinegap: 45
OS2WinAscent: 0
OS2WinAOffset: 1
OS2WinDescent: 0
OS2WinDOffset: 1
HheadAscent: 0
HheadAOffset: 1
HheadDescent: 0
HheadDOffset: 1
Lookup: 258 0 0 "'kern' Horizontal Kerning in Latin lookup 0" { "'kern' Horizontal Kerning in Latin lookup 0 subtable"  } ['kern' ('latn' <'dflt' > ) ]
DEI: 91125
Encoding: Custom
UnicodeInterp: none
NameList: AGL For New Fonts
DisplaySize: -24
AntiAlias: 1
FitToEm: 0
BeginChars: 480 406

StartChar: exclam
Encoding: 33 33 32
Width: 139
VWidth: 0
Flags: HMW
LayerCount: 2
Fore
SplineSet
100.791992188 365 m 0
 142.791992188 365 l 0
 103.255859375 179 l 0
 70.8505859375 83 l 0
 52.8505859375 83 l 0
 61.255859375 179 l 0
 100.791992188 365 l 0
34.6865234375 54 m 0
 76.6865234375 54 l 0
 65.2080078125 0 l 0
 23.2080078125 0 l 0
 34.6865234375 54 l 0
EndSplineSet
EndChar

StartChar: quoteleft
Encoding: 34 8216 33
Width: 111
VWidth: 0
Flags: HMW
LayerCount: 2
Fore
SplineSet
92.501953125 331 m 0
 75.65234375 327 65.888671875 314 55.2998046875 283 c 0
 82.2998046875 283 l 0
 70.8212890625 229 l 0
 18.8212890625 229 l 0
 30.0869140625 282 l 0
 37.1884765625 306 64.1162109375 348 97.1787109375 353 c 0
 92.501953125 331 l 0
EndSplineSet
EndChar

StartChar: quoteright
Encoding: 35 8217 34
Width: 111
VWidth: 0
Flags: HMW
LayerCount: 2
Fore
SplineSet
60.7001953125 299 m 0
 33.7001953125 299 l 0
 45.1787109375 353 l 0
 97.1787109375 353 l 0
 85.9130859375 300 l 0
 74.111328125 268 51.8837890625 234 18.8212890625 229 c 0
 23.498046875 251 l 0
 40.34765625 255 50.111328125 268 60.7001953125 299 c 0
EndSplineSet
EndChar

StartChar: quotedblleft
Encoding: 36 8220 35
Width: 166
VWidth: 0
Flags: HMW
LayerCount: 2
Fore
SplineSet
80.501953125 331 m 0
 63.65234375 327 53.888671875 314 43.2998046875 283 c 0
 70.2998046875 283 l 0
 58.8212890625 229 l 0
 6.8212890625 229 l 0
 18.0869140625 282 l 0
 29.888671875 314 52.1162109375 348 85.1787109375 353 c 0
 80.501953125 331 l 0
159.501953125 331 m 0
 142.65234375 327 132.888671875 314 122.299804688 283 c 0
 149.299804688 283 l 0
 137.821289062 229 l 0
 85.8212890625 229 l 0
 97.0869140625 282 l 0
 108.888671875 314 131.116210938 348 164.178710938 353 c 0
 159.501953125 331 l 0
EndSplineSet
EndChar

StartChar: quotedblright
Encoding: 37 8221 36
Width: 166
VWidth: 0
Flags: HMW
LayerCount: 2
Fore
SplineSet
85.8212890625 229 m 0
 90.498046875 251 l 0
 107.34765625 255 117.111328125 268 127.700195312 299 c 0
 100.700195312 299 l 0
 112.178710938 353 l 0
 164.178710938 353 l 0
 152.913085938 300 l 0
 141.111328125 268 118.883789062 234 85.8212890625 229 c 0
6.8212890625 229 m 0
 11.498046875 251 l 0
 28.34765625 255 38.111328125 268 48.7001953125 299 c 0
 21.7001953125 299 l 0
 33.1787109375 353 l 0
 85.1787109375 353 l 0
 73.9130859375 300 l 0
 62.111328125 268 39.8837890625 234 6.8212890625 229 c 0
EndSplineSet
EndChar

StartChar: quotedblbase
Encoding: 38 8222 37
Width: 166
VWidth: 0
Flags: HMW
LayerCount: 2
Fore
SplineSet
91.6669921875 -41 m 0
 108.516601562 -37 116.791992188 -31 127.381835938 0 c 0
 100.381835938 0 l 0
 111.434570312 52 l 0
 163.434570312 52 l 0
 152.59375 1 l 0
 140.791992188 -31 119.627929688 -60 86.5654296875 -65 c 0
 91.6669921875 -41 l 0
12.6669921875 -41 m 0
 29.5166015625 -37 37.7919921875 -31 48.3818359375 0 c 0
 21.3818359375 0 l 0
 32.4345703125 52 l 0
 84.4345703125 52 l 0
 73.59375 1 l 0
 61.7919921875 -31 40.6279296875 -60 7.5654296875 -65 c 0
 12.6669921875 -41 l 0
EndSplineSet
EndChar

StartChar: asciitilde
Encoding: 39 126 38
Width: 292
VWidth: 0
Flags: HMW
LayerCount: 2
Fore
SplineSet
29.7666015625 143 m 0
 48.771484375 223 104.196289062 225 128.370117188 207 c 0
 183.29296875 169 l 0
 201.7421875 157 225.23046875 164 232.094726562 201 c 0
 260.094726562 201 l 0
 249.704101562 138 194.177734375 112 157.916992188 139 c 0
 104.994140625 177 l 0
 84.9697265625 191 64.1435546875 173 57.7666015625 143 c 0
 29.7666015625 143 l 0
EndSplineSet
EndChar

StartChar: parenleft
Encoding: 40 40 39
Width: 166
VWidth: 0
Flags: HMW
LayerCount: 2
Fore
SplineSet
65.8369140625 -107 m 0
 -6.8544921875 45 28.642578125 212 166.163085938 365 c 0
 196.163085938 365 l 0
 73.642578125 212 38.1455078125 45 95.8369140625 -107 c 0
 65.8369140625 -107 l 0
EndSplineSet
EndChar

StartChar: parenright
Encoding: 41 41 40
Width: 166
VWidth: 0
Flags: HMW
LayerCount: 2
Fore
SplineSet
96.1630859375 365 m 0
 172.642578125 212 137.145507812 45 -4.1630859375 -107 c 0
 -34.1630859375 -107 l 0
 92.1455078125 45 127.642578125 212 66.1630859375 365 c 0
 96.1630859375 365 l 0
EndSplineSet
EndChar

StartChar: asterisk
Encoding: 42 42 41
Width: 194
VWidth: 0
Flags: HMW
LayerCount: 2
Fore
SplineSet
84.61328125 315 m 0
 95.3037109375 370 l 0
 127.303710938 370 l 0
 114.61328125 315 l 0
 168.65234375 334 l 0
 173.0625 303 l 0
 117.662109375 287 l 0
 139.521484375 244 l 0
 108.696289062 226 l 0
 90.2607421875 271 l 0
 52.6962890625 226 l 0
 29.521484375 244 l 0
 69.662109375 287 l 0
 21.0625 303 l 0
 38.65234375 334 l 0
 84.61328125 315 l 0
EndSplineSet
EndChar

StartChar: sterling
Encoding: 43 163 42
Width: 278
VWidth: 0
Flags: HMW
LayerCount: 2
Fore
SplineSet
104.04296875 188 m 0
 191.04296875 188 l 0
 184.666015625 158 l 0
 105.666015625 158 l 0
 116.676757812 111 79.44921875 77 32.3095703125 34 c 0
 139 89 151.145507812 5 224.560546875 54 c 0
 233.908203125 18 l 0
 130.391601562 -55 91.1357421875 52 0.8076171875 -6 c 0
 -16.1787109375 27 l 0
 69.4248046875 91 72.0771484375 127 62.666015625 158 c 0
 8.666015625 158 l 0
 15.04296875 188 l 0
 55.04296875 188 l 0
 28.072265625 254 52.298828125 288 80.3134765625 321 c 0
 119.515625 369 237.341796875 387 270.013671875 329 c 0
 284.487304688 303 279.53515625 275 272.37109375 246 c 0
 229.37109375 246 l 0
 240.298828125 288 229.477539062 350 135.612304688 313 c 0
 93.9990234375 296 75.9462890625 244 104.04296875 188 c 0
EndSplineSet
EndChar

StartChar: comma
Encoding: 44 44 43
Width: 139
VWidth: 0
Flags: HMW
LayerCount: 2
Fore
SplineSet
30.5029296875 -75 m 0
 35.6044921875 -51 l 0
 57.3671875 -38 67.2802734375 -29 75.4443359375 0 c 0
 46.4443359375 0 l 0
 57.4970703125 52 l 0
 109.497070312 52 l 0
 99.08203125 3 l 0
 91.85546875 -31 56.203125 -67 30.5029296875 -75 c 0
EndSplineSet
EndChar

StartChar: hyphen
Encoding: 45 45 44
Width: 166
VWidth: 0
Flags: HMW
LayerCount: 2
Fore
SplineSet
26.9326171875 157 m 0
 145.932617188 157 l 0
 138.067382812 120 l 0
 19.0673828125 120 l 0
 26.9326171875 157 l 0
EndSplineSet
EndChar

StartChar: period
Encoding: 46 46 45
Width: 139
VWidth: 0
Flags: HMW
LayerCount: 2
Fore
SplineSet
38.4736328125 0 m 0
 49.5263671875 52 l 0
 101.526367188 52 l 0
 90.4736328125 0 l 0
 38.4736328125 0 l 0
EndSplineSet
EndChar

StartChar: zero
Encoding: 48 48 47
Width: 278
VWidth: 0
Flags: HMW
LayerCount: 2
Fore
SplineSet
59 71 m 0
 70.16015625 20 142.947265625 19 177 71 c 0
 203.927734375 113 230.28515625 237 221 278 c 0
 209.052734375 330 135.83984375 329 103 278 c 0
 76.28515625 237 49.927734375 113 59 71 c 0
55.298828125 270 m 0
 116.380859375 388 254.380859375 388 265.298828125 270 c 0
 270.24609375 218 248.053710938 123 224.701171875 79 c 0
 163.619140625 -39 25.619140625 -39 14.701171875 79 c 0
 10.0537109375 123 28.24609375 218 55.298828125 270 c 0
EndSplineSet
EndChar

StartChar: one
Encoding: 49 49 48
Width: 278
VWidth: 0
Flags: HMW
LayerCount: 2
Fore
SplineSet
177.728515625 355 m 0
 206.728515625 355 l 0
 131.271484375 0 l 0
 87.271484375 0 l 0
 139.560546875 246 l 0
 60.560546875 246 l 0
 68.6376953125 284 l 0
 128.424804688 283 161.313476562 306 177.728515625 355 c 0
EndSplineSet
EndChar

StartChar: two
Encoding: 50 50 49
Width: 278
VWidth: 0
Flags: HMW
LayerCount: 2
Fore
SplineSet
168.041992188 184 m 0
 216.930664062 207 234.49609375 252 226.873046875 282 c 0
 214.4375 327 148.375 322 123.124023438 302 c 0
 100.297851562 284 87.896484375 268 78.2451171875 232 c 0
 38.2451171875 232 l 0
 48.2353515625 279 62.2734375 298 85.162109375 321 c 0
 135.002929688 372 247.002929688 372 267.249023438 312 c 0
 280.171875 274 281.930664062 207 192.453125 153 c 0
 127.525390625 111 67.951171875 113 32.859375 42 c 0
 221.859375 42 l 0
 212.931640625 0 l 0
 -21.068359375 0 l 0
 0.6513671875 121 116.728515625 159 168.041992188 184 c 0
EndSplineSet
EndChar

StartChar: three
Encoding: 51 51 50
Width: 278
VWidth: 0
Flags: HMW
LayerCount: 2
Fore
SplineSet
4.654296875 107 m 0
 48.654296875 107 l 0
 44.6162109375 88 42.7275390625 65 54.5390625 50 c 0
 79.7373046875 18 167.4375 26 191.403320312 87 c 0
 204.41796875 120 203.770507812 164 144.770507812 164 c 0
 109.770507812 164 l 0
 117.84765625 202 l 0
 151.84765625 202 l 0
 209.84765625 202 235.813476562 263 215.465820312 299 c 0
 201.779296875 324 138.141601562 321 112.828125 296 c 0
 94.001953125 278 87.388671875 261 83.9248046875 240 c 0
 43.9248046875 240 l 0
 57.890625 301 78.716796875 319 112.180664062 340 c 0
 153.70703125 366 246.556640625 370 263.590820312 309 c 0
 274.301757812 270 265.248046875 218 210.234375 185 c 0
 258.345703125 162 247.616210938 88 215.114257812 48 c 0
 162.72265625 -15 65.447265625 -21 33.3994140625 7 c 0
 8.8623046875 28 -2.673828125 49 4.654296875 107 c 0
EndSplineSet
EndChar

StartChar: four
Encoding: 52 52 51
Width: 278
VWidth: 0
Flags: HMW
LayerCount: 2
Fore
SplineSet
189.149414062 277 m 0
 47.265625 127 l 0
 157.265625 127 l 0
 189.149414062 277 l 0
217.728515625 355 m 0
 249.728515625 355 l 0
 201.265625 127 l 0
 251.265625 127 l 0
 242.125976562 84 l 0
 192.125976562 84 l 0
 174.271484375 0 l 0
 130.271484375 0 l 0
 148.125976562 84 l 0
 -3.8740234375 84 l 0
 5.478515625 128 l 0
 217.728515625 355 l 0
EndSplineSet
EndChar

StartChar: five
Encoding: 53 53 52
Width: 278
VWidth: 0
Flags: HMW
LayerCount: 2
Fore
SplineSet
46.623046875 91 m 0
 45.193359375 9 136.231445312 28 168.24609375 61 c 0
 199.047851562 93 203.975585938 135 192.501953125 161 c 0
 174.791015625 200 115.854492188 205 66.076171875 159 c 0
 27.076171875 159 l 0
 96.7373046875 355 l 0
 281.737304688 355 l 0
 272.172851562 310 l 0
 122.172851562 310 l 0
 87.341796875 212 l 0
 128.356445312 245 215.569335938 246 241.328125 179 c 0
 255.825195312 139 241.34765625 85 209.482421875 48 c 0
 131.140625 -43 -14.8212890625 -24 0.623046875 91 c 0
 46.623046875 91 l 0
EndSplineSet
EndChar

StartChar: six
Encoding: 54 54 53
Width: 278
VWidth: 0
Flags: HMW
LayerCount: 2
Fore
SplineSet
173.888671875 61 m 0
 196.989257812 85 210.192382812 133 195.71875 159 c 0
 176.008789062 198 116.733398438 192 78.443359375 153 c 0
 55.5546875 130 52.2021484375 86 62.888671875 61 c 0
 77.236328125 25 131.323242188 16 173.888671875 61 c 0
13.564453125 83 m 0
 15.771484375 211 61.0126953125 278 92.4521484375 313 c 0
 135.868164062 362 220.630859375 375 252.491210938 332 c 0
 266.665039062 314 275.3515625 289 269.037109375 264 c 0
 227.037109375 264 l 0
 231.288085938 284 227.201171875 293 219.114257812 302 c 0
 201.791015625 324 151.002929688 325 114.86328125 282 c 0
 94.76171875 258 78.810546875 230 67.607421875 182 c 0
 134.63671875 248 201.959960938 226 225.795898438 197 c 0
 271.892578125 141 229.67578125 60 194.298828125 30 c 0
 98.869140625 -52 11.8349609375 9 13.564453125 83 c 0
EndSplineSet
EndChar

StartChar: seven
Encoding: 55 55 54
Width: 278
VWidth: 0
Flags: HMW
LayerCount: 2
Fore
SplineSet
289.439453125 316 m 0
 170.59375 185 124.565429688 119 77.271484375 0 c 0
 30.271484375 0 l 0
 87.416015625 123 133.168945312 183 242.1640625 310 c 0
 51.1640625 310 l 0
 60.728515625 355 l 0
 297.728515625 355 l 0
 289.439453125 316 l 0
EndSplineSet
EndChar

StartChar: eight
Encoding: 56 56 55
Width: 278
VWidth: 0
Flags: HMW
LayerCount: 2
Fore
SplineSet
194.24609375 138 m 0
 177.173828125 180 107.38671875 181 70.24609375 138 c 0
 51.5703125 116 44.3427734375 82 54.091796875 62 c 0
 74.9521484375 19 144.802734375 23 178.091796875 62 c 0
 196.342773438 82 202.995117188 118 194.24609375 138 c 0
79.8740234375 188 m 0
 36.5263671875 224 48.216796875 279 77.65625 314 c 0
 126.984375 372 234.41015625 374 261.65625 314 c 0
 278.579101562 276 259.67578125 220 205.874023438 188 c 0
 270.096679688 142 232.666992188 60 210.991210938 38 c 0
 154.450195312 -21 44.7490234375 -29 10.9912109375 38 c 0
 -2.482421875 64 -3.328125 140 79.8740234375 188 c 0
98.2265625 232 m 0
 120.299804688 190 173.362304688 195 206.2265625 232 c 0
 213.926757812 240 228.090820312 269 219.767578125 291 c 0
 205.844726562 329 142.057617188 330 109.767578125 291 c 0
 96.154296875 274 90.990234375 245 98.2265625 232 c 0
EndSplineSet
EndChar

StartChar: nine
Encoding: 57 57 56
Width: 278
VWidth: 0
Flags: HMW
LayerCount: 2
Fore
SplineSet
84.28125 190 m 0
 104.991210938 151 164.266601562 157 201.556640625 196 c 0
 224.4453125 219 227.797851562 263 217.111328125 288 c 0
 203.763671875 324 149.676757812 333 106.111328125 288 c 0
 83.0107421875 264 69.8076171875 216 84.28125 190 c 0
187.547851562 36 m 0
 144.131835938 -13 62.369140625 -26 28.5087890625 17 c 0
 14.3349609375 35 5.6484375 60 11.962890625 85 c 0
 53.962890625 85 l 0
 49.7119140625 65 53.798828125 56 61.8857421875 47 c 0
 80.208984375 25 130.997070312 24 165.13671875 67 c 0
 185.23828125 91 201.189453125 119 212.392578125 167 c 0
 146.36328125 101 78.0400390625 123 54.2041015625 152 c 0
 8.107421875 208 50.32421875 289 85.701171875 319 c 0
 182.130859375 401 267.165039062 340 266.435546875 266 c 0
 264.228515625 138 218.987304688 71 187.547851562 36 c 0
EndSplineSet
EndChar

StartChar: quotesingle
Encoding: 60 39 59
Width: 95
VWidth: 0
Flags: HMW
LayerCount: 2
Fore
SplineSet
39.072265625 354 m 0
 87.072265625 354 l 0
 74.53125 295 l 0
 46.927734375 231 l 0
 26.927734375 231 l 0
 26.53125 295 l 0
 39.072265625 354 l 0
EndSplineSet
EndChar

StartChar: equal
Encoding: 61 61 60
Width: 292
VWidth: 0
Flags: HMW
LayerCount: 2
Fore
SplineSet
37.7529296875 181 m 0
 279.752929688 181 l 0
 271.67578125 143 l 0
 29.67578125 143 l 0
 37.7529296875 181 l 0
12.2470703125 61 m 0
 20.32421875 99 l 0
 262.32421875 99 l 0
 254.247070312 61 l 0
 12.2470703125 61 l 0
EndSplineSet
EndChar

StartChar: quotedbl
Encoding: 62 34 61
Width: 177
VWidth: 0
Flags: HMW
LayerCount: 2
Fore
SplineSet
39.072265625 354 m 0
 87.072265625 354 l 0
 74.53125 295 l 0
 46.927734375 231 l 0
 26.927734375 231 l 0
 26.53125 295 l 0
 39.072265625 354 l 0
166.072265625 354 m 0
 153.53125 295 l 0
 125.927734375 231 l 0
 105.927734375 231 l 0
 105.53125 295 l 0
 118.072265625 354 l 0
 166.072265625 354 l 0
EndSplineSet
EndChar

StartChar: question
Encoding: 63 63 62
Width: 278
VWidth: 0
Flags: HMW
LayerCount: 2
Fore
SplineSet
96.904296875 250 m 0
 52.904296875 250 l 0
 56.0927734375 265 63.5947265625 305 94.546875 333 c 0
 142.686523438 376 237.237304688 388 270.483398438 328 c 0
 279.870117188 311 283.092773438 265 247.52734375 220 c 0
 214.8125 179 156.987304688 161 151.122070312 124 c 0
 145.170898438 96 l 0
 100.170898438 96 l 0
 106.122070312 124 l 0
 118.8125 179 164.938476562 189 197.165039062 223 c 0
 227.1796875 256 239.131835938 284 221.5078125 314 c 0
 209.546875 333 161.671875 343 121.807617188 306 c 0
 106.83203125 292 100.368164062 271 96.904296875 250 c 0
79.765625 0 m 0
 90.818359375 52 l 0
 135.818359375 52 l 0
 124.765625 0 l 0
 79.765625 0 l 0
EndSplineSet
EndChar

StartChar: acute
Encoding: 64 180 63
Width: 166
VWidth: 0
Flags: HMW
LayerCount: 2
Fore
SplineSet
104.864257812 370 m 0
 158.864257812 370 l 0
 70.1357421875 296 l 0
 38.1357421875 296 l 0
 104.864257812 370 l 0
EndSplineSet
EndChar

StartChar: A
Encoding: 65 65 64
Width: 333
VWidth: 0
Flags: HMW
LayerCount: 2
Fore
SplineSet
216.666992188 148 m 0
 192.975585938 300 l 0
 104.666992188 148 l 0
 216.666992188 148 l 0
79.7392578125 106 m 0
 18.2080078125 0 l 0
 -29.7919921875 0 l 0
 182.791992188 365 l 0
 230.791992188 365 l 0
 288.208007812 0 l 0
 240.208007812 0 l 0
 223.739257812 106 l 0
 79.7392578125 106 l 0
EndSplineSet
EndChar

StartChar: B
Encoding: 66 66 65
Width: 333
VWidth: 0
Flags: HMW
LayerCount: 2
Fore
SplineSet
155.135742188 42 m 0
 167.135742188 42 239.009765625 32 254.739257812 106 c 0
 263.029296875 145 242.493164062 166 200.280273438 165 c 0
 89.2802734375 165 l 0
 63.1357421875 42 l 0
 155.135742188 42 l 0
263.01953125 192 m 0
 278.318359375 184 313.4296875 161 301.739257812 106 c 0
 297.063476562 84 269.208007812 0 173.208007812 0 c 0
 7.2080078125 0 l 0
 84.7919921875 365 l 0
 223.791992188 365 l 0
 306.791992188 365 335.352539062 330 322.811523438 271 c 0
 314.30859375 231 283.294921875 198 263.01953125 192 c 0
204.208007812 207 m 0
 228.208007812 207 263.970703125 220 273.110351562 263 c 0
 279.700195312 294 261.864257812 323 214.864257812 323 c 0
 122.864257812 323 l 0
 98.2080078125 207 l 0
 204.208007812 207 l 0
EndSplineSet
EndChar

StartChar: C
Encoding: 67 67 66
Width: 361
VWidth: 0
Flags: HMW
LayerCount: 2
Fore
SplineSet
282.498046875 138 m 0
 329.498046875 138 l 0
 304.106445312 75 275.942382812 46 244.266601562 24 c 0
 171.638671875 -26 78.5517578125 -17 42.81640625 36 c 0
 -20.203125 130 42.642578125 261 88.8447265625 309 c 0
 179.825195312 403 284.51171875 378 315.071289062 343 c 0
 335.182617188 320 346.293945312 297 347.516601562 251 c 0
 299.516601562 251 l 0
 296.767578125 271 290.806640625 290 280.20703125 306 c 0
 250.921875 347 169.221679688 339 123.380859375 288 c 0
 84.0283203125 244 43.28515625 137 83.619140625 68 c 0
 102.604492188 35 166.927734375 13 231.555664062 63 c 0
 263.870117188 88 271.671875 120 282.498046875 138 c 0
EndSplineSet
EndChar

StartChar: D
Encoding: 68 68 67
Width: 361
VWidth: 0
Flags: HMW
LayerCount: 2
Fore
SplineSet
149.208007812 0 m 0
 7.2080078125 0 l 0
 84.7919921875 365 l 0
 226.791992188 365 l 0
 300.791992188 365 323.139648438 329 338.598632812 270 c 0
 348.521484375 232 334.81640625 144 301.401367188 95 c 0
 264.922851562 41 226.208007812 0 149.208007812 0 c 0
263.65234375 115 m 0
 281.87890625 149 298.6953125 214 292.34765625 250 c 0
 286 286 275.864257812 323 217.864257812 323 c 0
 122.864257812 323 l 0
 63.1357421875 42 l 0
 158.135742188 42 l 0
 213.135742188 42 242.362304688 76 263.65234375 115 c 0
EndSplineSet
EndChar

StartChar: E
Encoding: 69 69 68
Width: 333
VWidth: 0
Flags: HMW
LayerCount: 2
Fore
SplineSet
7.2080078125 0 m 0
 84.7919921875 365 l 0
 342.791992188 365 l 0
 333.864257812 323 l 0
 122.864257812 323 l 0
 98.2080078125 207 l 0
 297.208007812 207 l 0
 288.280273438 165 l 0
 89.2802734375 165 l 0
 63.1357421875 42 l 0
 277.135742188 42 l 0
 268.208007812 0 l 0
 7.2080078125 0 l 0
EndSplineSet
EndChar

StartChar: F
Encoding: 70 70 69
Width: 305
VWidth: 0
Flags: HMW
LayerCount: 2
Fore
SplineSet
98.2080078125 207 m 0
 269.208007812 207 l 0
 260.280273438 165 l 0
 89.2802734375 165 l 0
 54.2080078125 0 l 0
 7.2080078125 0 l 0
 84.7919921875 365 l 0
 329.791992188 365 l 0
 320.864257812 323 l 0
 122.864257812 323 l 0
 98.2080078125 207 l 0
EndSplineSet
EndChar

StartChar: G
Encoding: 71 71 70
Width: 389
VWidth: 0
Flags: HMW
LayerCount: 2
Fore
SplineSet
323.986328125 253 m 0
 332.541992188 345 209.754882812 346 164.58984375 317 c 0
 44.2236328125 240 48.064453125 84 102.412109375 48 c 0
 177.209960938 0 288.962890625 60 303.416992188 128 c 0
 308.518554688 152 l 0
 202.518554688 152 l 0
 211.446289062 194 l 0
 359.446289062 194 l 0
 317.78515625 -2 l 0
 285.78515625 -2 l 0
 285.349609375 43 l 0
 191.770507812 -35 80.234375 -14 46.01171875 32 c 0
 -9.046875 107 15.861328125 243 111.928710938 328 c 0
 178.256835938 386 294.256835938 386 338.754882812 346 c 0
 359.715820312 327 375.40234375 302 369.986328125 253 c 0
 323.986328125 253 l 0
EndSplineSet
EndChar

StartChar: H
Encoding: 72 72 71
Width: 361
VWidth: 0
Flags: HMW
LayerCount: 2
Fore
SplineSet
98.2080078125 207 m 0
 284.208007812 207 l 0
 317.791992188 365 l 0
 364.791992188 365 l 0
 287.208007812 0 l 0
 240.208007812 0 l 0
 275.280273438 165 l 0
 89.2802734375 165 l 0
 54.2080078125 0 l 0
 7.2080078125 0 l 0
 84.7919921875 365 l 0
 131.791992188 365 l 0
 98.2080078125 207 l 0
EndSplineSet
EndChar

StartChar: I
Encoding: 73 73 72
Width: 139
VWidth: 0
Flags: HMW
LayerCount: 2
Fore
SplineSet
7.2080078125 0 m 0
 84.7919921875 365 l 0
 131.791992188 365 l 0
 54.2080078125 0 l 0
 7.2080078125 0 l 0
EndSplineSet
EndChar

StartChar: J
Encoding: 74 74 73
Width: 250
VWidth: 0
Flags: HMW
LayerCount: 2
Fore
SplineSet
-10.98046875 84 m 0
 -3.7529296875 118 l 0
 43.2470703125 118 l 0
 35.5947265625 82 l 0
 29.642578125 54 45.3916015625 34 75.3916015625 34 c 0
 103.391601562 34 139.642578125 54 149.208007812 99 c 0
 205.748046875 365 l 0
 252.748046875 365 l 0
 196.208007812 99 l 0
 181.541992188 30 122.251953125 -9 65.251953125 -9 c 0
 3.251953125 -9 -20.7578125 38 -10.98046875 84 c 0
EndSplineSet
EndChar

StartChar: K
Encoding: 75 75 74
Width: 333
VWidth: 0
Flags: HMW
LayerCount: 2
Fore
SplineSet
84.7919921875 365 m 0
 131.791992188 365 l 0
 93.1064453125 183 l 0
 315.791992188 365 l 0
 373.791992188 365 l 0
 188.6953125 214 l 0
 284.208007812 0 l 0
 232.208007812 0 l 0
 150.681640625 181 l 0
 80.5654296875 124 l 0
 54.2080078125 0 l 0
 7.2080078125 0 l 0
 84.7919921875 365 l 0
EndSplineSet
EndChar

StartChar: L
Encoding: 76 76 75
Width: 278
VWidth: 0
Flags: HMW
LayerCount: 2
Fore
SplineSet
7.2080078125 0 m 0
 84.7919921875 365 l 0
 131.791992188 365 l 0
 63.1357421875 42 l 0
 243.135742188 42 l 0
 234.208007812 0 l 0
 7.2080078125 0 l 0
EndSplineSet
EndChar

StartChar: M
Encoding: 77 77 76
Width: 416
VWidth: 0
Flags: HMW
LayerCount: 2
Fore
SplineSet
7.2080078125 0 m 0
 84.7919921875 365 l 0
 151.791992188 365 l 0
 191.32421875 57 l 0
 360.791992188 365 l 0
 427.791992188 365 l 0
 350.208007812 0 l 0
 303.208007812 0 l 0
 367.1875 301 l 0
 201.208007812 0 l 0
 156.208007812 0 l 0
 118.1875 301 l 0
 54.2080078125 0 l 0
 7.2080078125 0 l 0
EndSplineSet
EndChar

StartChar: N
Encoding: 78 78 77
Width: 361
VWidth: 0
Flags: HMW
LayerCount: 2
Fore
SplineSet
84.7919921875 365 m 0
 140.791992188 365 l 0
 260.086914062 70 l 0
 322.791992188 365 l 0
 369.791992188 365 l 0
 292.208007812 0 l 0
 236.208007812 0 l 0
 116.700195312 294 l 0
 54.2080078125 0 l 0
 7.2080078125 0 l 0
 84.7919921875 365 l 0
EndSplineSet
EndChar

StartChar: O
Encoding: 79 79 78
Width: 389
VWidth: 0
Flags: HMW
LayerCount: 2
Fore
SplineSet
353.501953125 326 m 0
 410.8359375 257 379.1640625 108 292.498046875 39 c 0
 209.681640625 -26 101.89453125 -25 47.498046875 39 c 0
 -9.8359375 108 21.8359375 257 108.501953125 326 c 0
 190.10546875 390 298.318359375 391 353.501953125 326 c 0
79.275390625 85 m 0
 114.971679688 13 212.971679688 13 279.275390625 85 c 0
 332.666992188 148 347.333007812 217 320.724609375 280 c 0
 285.028320312 352 187.028320312 352 120.724609375 280 c 0
 67.3330078125 217 52.6669921875 148 79.275390625 85 c 0
EndSplineSet
EndChar

StartChar: P
Encoding: 80 80 79
Width: 333
VWidth: 0
Flags: HMW
LayerCount: 2
Fore
SplineSet
325.466796875 260 m 0
 304.2109375 160 228.510742188 152 185.510742188 152 c 0
 86.5107421875 152 l 0
 54.2021484375 0 l 0
 7.2021484375 0 l 0
 84.78515625 365 l 0
 230.78515625 365 l 0
 245.78515625 365 349.060546875 371 325.466796875 260 c 0
276.404296875 255 m 0
 290.220703125 320 236.0703125 324 221.858398438 323 c 0
 122.858398438 323 l 0
 95.4384765625 194 l 0
 194.438476562 194 l 0
 216.438476562 194 264.713867188 200 276.404296875 255 c 0
EndSplineSet
EndChar

StartChar: Q
Encoding: 81 81 80
Width: 389
VWidth: 0
Flags: HMW
LayerCount: 2
Fore
SplineSet
228.340820312 43 m 0
 197.35546875 76 l 0
 225.306640625 104 l 0
 262.229492188 66 l 0
 328.833984375 130 351.287109375 198 323.716796875 280 c 0
 305.982421875 333 205.721679688 360 139.54296875 298 c 0
 72.15234375 235 51.572265625 157 79.4814453125 86 c 0
 105.08984375 23 184.302734375 24 228.340820312 43 c 0
290.853515625 36 m 0
 323.98828125 -1 l 0
 296.25 -28 l 0
 256.176757812 14 l 0
 187.524414062 -22 105.012695312 -15 62.5146484375 25 c 0
 -15.54296875 100 24.7265625 233 82.9677734375 300 c 0
 169.010742188 399 329.010742188 399 370.967773438 300 c 0
 408.688476562 214 362.543945312 91 290.853515625 36 c 0
EndSplineSet
EndChar

StartChar: R
Encoding: 82 82 81
Width: 361
VWidth: 0
Flags: HMW
LayerCount: 2
Fore
SplineSet
347.110351562 263 m 0
 338.395507812 222 317.932617188 201 279.043945312 178 c 0
 345.029296875 145 263.22265625 33 302.971679688 13 c 0
 300.208007812 0 l 0
 243.208007812 0 l 0
 225.26171875 52 305.217773438 160 206.942382812 154 c 0
 86.9423828125 154 l 0
 54.2080078125 0 l 0
 7.2080078125 0 l 0
 84.7919921875 365 l 0
 251.791992188 365 l 0
 356.791992188 365 356.888671875 309 347.110351562 263 c 0
215.869140625 196 m 0
 269.869140625 196 292.395507812 222 300.8984375 262 c 0
 306 286 300.864257812 323 242.864257812 323 c 0
 122.864257812 323 l 0
 95.869140625 196 l 0
 215.869140625 196 l 0
EndSplineSet
EndChar

StartChar: S
Encoding: 83 83 82
Width: 333
VWidth: 0
Flags: HMW
LayerCount: 2
Fore
SplineSet
10.2978515625 118 m 0
 53.2978515625 118 l 0
 40.5830078125 77 75.5927734375 30 139.805664062 31 c 0
 217.017578125 32 256.920898438 88 243.573242188 124 c 0
 228.650390625 162 146.224609375 160 84.9638671875 187 c 0
 22.703125 214 52.5966796875 317 113.823242188 351 c 0
 175.049804688 385 263.775390625 379 295.823242188 351 c 0
 312.634765625 336 329.74609375 313 316.630859375 256 c 0
 273.630859375 256 l 0
 291.760742188 346 182.185546875 348 133.80859375 318 c 0
 81.0068359375 286 95.8916015625 229 129.829101562 224 c 0
 183.365234375 203 261.15234375 202 288.799804688 158 c 0
 314.66015625 115 274.505859375 39 230.829101562 17 c 0
 171.665039062 -12 95.90234375 -25 33.466796875 20 c 0
 12.443359375 34 4.49609375 86 10.2978515625 118 c 0
EndSplineSet
EndChar

StartChar: T
Encoding: 84 84 83
Width: 305
VWidth: 0
Flags: HMW
LayerCount: 2
Fore
SplineSet
49.7919921875 365 m 0
 335.791992188 365 l 0
 326.864257812 323 l 0
 206.864257812 323 l 0
 138.208007812 0 l 0
 91.2080078125 0 l 0
 159.864257812 323 l 0
 40.8642578125 323 l 0
 49.7919921875 365 l 0
EndSplineSet
EndChar

StartChar: U
Encoding: 85 85 84
Width: 361
VWidth: 0
Flags: HMW
LayerCount: 2
Fore
SplineSet
312.18359375 113 m 0
 300.280273438 57 269.991210938 18 215.165039062 0 c 0
 169.614257812 -12 119.614257812 -12 83.1650390625 0 c 0
 32.9912109375 18 20.4931640625 58 32.18359375 113 c 0
 85.748046875 365 l 0
 132.748046875 365 l 0
 79.18359375 113 l 0
 71.1064453125 75 82.0048828125 51 102.092773438 42 c 0
 126.904296875 27 179.904296875 27 213.092773438 42 c 0
 236.217773438 52 257.106445312 75 265.18359375 113 c 0
 318.748046875 365 l 0
 365.748046875 365 l 0
 312.18359375 113 l 0
EndSplineSet
EndChar

StartChar: V
Encoding: 86 86 85
Width: 333
VWidth: 0
Flags: HMW
LayerCount: 2
Fore
SplineSet
53.7919921875 365 m 0
 103.791992188 365 l 0
 143.111328125 56 l 0
 311.791992188 365 l 0
 361.791992188 365 l 0
 155.208007812 0 l 0
 106.208007812 0 l 0
 53.7919921875 365 l 0
EndSplineSet
EndChar

StartChar: W
Encoding: 87 87 86
Width: 472
VWidth: 0
Flags: HMW
LayerCount: 2
Fore
SplineSet
263.400390625 302 m 0
 113.208007812 0 l 0
 62.2080078125 0 l 0
 49.7919921875 365 l 0
 99.7919921875 365 l 0
 105.512695312 72 l 0
 251.791992188 365 l 0
 301.791992188 365 l 0
 323.512695312 72 l 0
 453.791992188 365 l 0
 503.791992188 365 l 0
 336.208007812 0 l 0
 285.208007812 0 l 0
 263.400390625 302 l 0
EndSplineSet
EndChar

StartChar: X
Encoding: 88 88 87
Width: 333
VWidth: 0
Flags: HMW
LayerCount: 2
Fore
SplineSet
176.18359375 221 m 0
 300.791992188 365 l 0
 357.791992188 365 l 0
 197.106445312 183 l 0
 286.208007812 0 l 0
 229.208007812 0 l 0
 160.029296875 145 l 0
 29.2080078125 0 l 0
 -27.7919921875 0 l 0
 139.106445312 183 l 0
 55.7919921875 365 l 0
 112.791992188 365 l 0
 176.18359375 221 l 0
EndSplineSet
EndChar

StartChar: Y
Encoding: 89 89 88
Width: 333
VWidth: 0
Flags: HMW
LayerCount: 2
Fore
SplineSet
44.7919921875 365 m 0
 101.791992188 365 l 0
 169.106445312 183 l 0
 311.791992188 365 l 0
 368.791992188 365 l 0
 180.69140625 134 l 0
 152.208007812 0 l 0
 105.208007812 0 l 0
 133.69140625 134 l 0
 44.7919921875 365 l 0
EndSplineSet
EndChar

StartChar: Z
Encoding: 90 90 89
Width: 305
VWidth: 0
Flags: HMW
LayerCount: 2
Fore
SplineSet
258.135742188 42 m 0
 249.208007812 0 l 0
 -24.7919921875 0 l 0
 -16.0771484375 41 l 0
 263.864257812 323 l 0
 58.8642578125 323 l 0
 67.7919921875 365 l 0
 330.791992188 365 l 0
 321.651367188 322 l 0
 43.1357421875 42 l 0
 258.135742188 42 l 0
EndSplineSet
EndChar

StartChar: dieresis
Encoding: 91 168 90
Width: 166
VWidth: 0
Flags: HMW
LayerCount: 2
Fore
SplineSet
104.419921875 354 m 0
 153.419921875 354 l 0
 142.580078125 303 l 0
 93.580078125 303 l 0
 104.419921875 354 l 0
69.419921875 354 m 0
 58.580078125 303 l 0
 9.580078125 303 l 0
 20.419921875 354 l 0
 69.419921875 354 l 0
EndSplineSet
EndChar

StartChar: ring
Encoding: 92 730 91
Width: 166
VWidth: 0
Flags: HMW
LayerCount: 2
Fore
SplineSet
108.411132812 298 m 0
 87.796875 281 59.796875 281 46.4111328125 298 c 0
 33.0244140625 315 38.9755859375 343 59.5888671875 360 c 0
 80.203125 377 109.203125 377 122.588867188 360 c 0
 135.975585938 343 130.024414062 315 108.411132812 298 c 0
97.173828125 311 m 0
 109.299804688 321 112.700195312 337 105.826171875 347 c 0
 97.7392578125 356 81.7392578125 356 69.826171875 347 c 0
 58.7001953125 337 55.2998046875 321 62.173828125 311 c 0
 70.2607421875 302 86.2607421875 302 97.173828125 311 c 0
EndSplineSet
EndChar

StartChar: dotaccent
Encoding: 93 729 92
Width: 166
VWidth: 0
Flags: HMW
LayerCount: 2
Fore
SplineSet
104.845703125 365 m 0
 93.154296875 310 l 0
 51.154296875 310 l 0
 62.845703125 365 l 0
 104.845703125 365 l 0
EndSplineSet
EndChar

StartChar: circumflex
Encoding: 94 710 93
Width: 166
VWidth: 0
Flags: HMW
LayerCount: 2
Fore
SplineSet
2.1357421875 296 m 0
 61.8642578125 370 l 0
 117.864257812 370 l 0
 146.135742188 296 l 0
 108.135742188 296 l 0
 83.9130859375 342 l 0
 40.1357421875 296 l 0
 2.1357421875 296 l 0
EndSplineSet
EndChar

StartChar: underscore
Encoding: 95 95 94
Width: 278
VWidth: 0
Flags: HMW
LayerCount: 2
Fore
SplineSet
291.657226562 -63 m 0
 286.342773438 -88 l 0
 -13.6572265625 -88 l 0
 -8.3427734375 -63 l 0
 291.657226562 -63 l 0
EndSplineSet
EndChar

StartChar: grave
Encoding: 96 96 95
Width: 166
VWidth: 0
Flags: HMW
LayerCount: 2
Fore
SplineSet
72.8642578125 370 m 0
 108.135742188 296 l 0
 76.1357421875 296 l 0
 18.8642578125 370 l 0
 72.8642578125 370 l 0
EndSplineSet
EndChar

StartChar: a
Encoding: 97 97 96
Width: 278
VWidth: 0
Flags: HMW
LayerCount: 2
Fore
SplineSet
192.015625 131 m 0
 146.551757812 110 81.314453125 123 54.30078125 90 c 0
 32.3486328125 62 45.484375 25 84.9091796875 27 c 0
 119.122070312 28 160.735351562 45 180.962890625 79 c 0
 192.015625 131 l 0
38.28125 184 m 0
 49.12109375 235 96.9853515625 272 160.985351562 272 c 0
 211.985351562 272 260.16015625 254 251.01953125 211 c 0
 217.861328125 55 l 0
 212.97265625 32 222.909179688 27 241.122070312 28 c 0
 233.682617188 -7 l 0
 188.76953125 -16 168.170898438 0 169.909179688 27 c 0
 141.658203125 7 117.469726562 -8 71.044921875 -10 c 0
 -8.8056640625 -14 -16.80078125 66 26.0400390625 117 c 0
 72.9423828125 173 193.015625 131 202.430664062 180 c 0
 206.46875 199 l 0
 210.932617188 220 189.908203125 234 147.908203125 234 c 0
 118.908203125 234 85.5078125 218 78.28125 184 c 0
 38.28125 184 l 0
EndSplineSet
EndChar

StartChar: b
Encoding: 98 98 97
Width: 278
VWidth: 0
Flags: HMW
LayerCount: 2
Fore
SplineSet
249.053710938 234 m 0
 270.9765625 196 276.059570312 107 205.692382812 30 c 0
 170.403320312 -9 88.451171875 -37 44.6923828125 30 c 0
 38.31640625 0 l 0
 -3.68359375 0 l 0
 73.8994140625 365 l 0
 115.899414062 365 l 0
 88.0537109375 234 l 0
 130.256835938 282 217.532226562 288 249.053710938 234 c 0
69.2822265625 61 m 0
 91.44140625 10 153.267578125 28 177.64453125 58 c 0
 221.547851562 114 221.23828125 169 210.40234375 198 c 0
 192.392578125 245 132.754882812 242 98.8271484375 200 c 0
 57.7744140625 148 56.87109375 92 69.2822265625 61 c 0
EndSplineSet
EndChar

StartChar: c
Encoding: 99 99 98
Width: 250
VWidth: 0
Flags: HMW
LayerCount: 2
Fore
SplineSet
188.567382812 96 m 0
 231.567382812 96 l 0
 222.190429688 66 209.813476562 36 172.712890625 12 c 0
 106.360351562 -32 43.94921875 -1 28.4130859375 20 c 0
 -9.5341796875 72 16.6591796875 167 57.07421875 216 c 0
 109.677734375 280 196.803710938 290 236.813476562 243 c 0
 253.349609375 222 251.03515625 197 247.721679688 172 c 0
 205.721679688 172 l 0
 211.4609375 199 205.5859375 209 194.923828125 220 c 0
 178.325195312 236 125.75 238 94.4609375 199 c 0
 68.6591796875 167 49.6689453125 120 58.4658203125 72 c 0
 64.2392578125 38 109.775390625 17 150.088867188 42 c 0
 167.427734375 53 182.678710938 73 188.567382812 96 c 0
EndSplineSet
EndChar

StartChar: d
Encoding: 100 100 99
Width: 278
VWidth: 0
Flags: HMW
LayerCount: 2
Fore
SplineSet
198.526367188 194 m 0
 185.666992188 237 130.4296875 250 84.8017578125 200 c 0
 53.150390625 164 26.3818359375 71 77.73046875 35 c 0
 97.7548828125 21 157.604492188 25 189.333984375 99 c 0
 203.986328125 135 208.150390625 164 198.526367188 194 c 0
221.029296875 234 m 0
 248.874023438 365 l 0
 290.874023438 365 l 0
 213.291015625 0 l 0
 171.291015625 0 l 0
 177.66796875 30 l 0
 97.150390625 -43 32.291015625 0 16.66796875 30 c 0
 -17.87890625 98 12.4013671875 184 60.029296875 234 c 0
 109.08203125 286 202.657226562 284 221.029296875 234 c 0
EndSplineSet
EndChar

StartChar: e
Encoding: 101 101 100
Width: 278
VWidth: 0
Flags: HMW
LayerCount: 2
Fore
SplineSet
200.109375 221 m 0
 179.573242188 242 140.360351562 241 112.109375 221 c 0
 92.708984375 205 81.3076171875 189 65.8681640625 154 c 0
 212.868164062 154 l 0
 215.669921875 186 211.346679688 208 200.109375 221 c 0
192.77734375 83 m 0
 236.77734375 83 l 0
 213.63671875 40 201.0859375 28 176.47265625 11 c 0
 132.883789062 -20 63.9462890625 -15 37.685546875 12 c 0
 -9.8994140625 61 8.78125 163 64.1728515625 226 c 0
 118.350585938 288 224.350585938 288 246.172851562 226 c 0
 259.8828125 187 262.544921875 176 247.366210938 114 c 0
 55.3662109375 114 l 0
 47.7138671875 78 57.8251953125 55 69.4873046875 44 c 0
 91.0234375 23 133.448242188 25 161.487304688 44 c 0
 177.038085938 56 187.588867188 68 192.77734375 83 c 0
EndSplineSet
EndChar

StartChar: f
Encoding: 102 102 101
Width: 139
VWidth: 0
Flags: HMW
LayerCount: 2
Fore
SplineSet
158.619140625 322 m 0
 136.681640625 327 115.193359375 320 109.879882812 295 c 0
 103.078125 263 l 0
 146.078125 263 l 0
 137.150390625 221 l 0
 94.150390625 221 l 0
 47.17578125 0 l 0
 5.17578125 0 l 0
 52.150390625 221 l 0
 17.150390625 221 l 0
 26.078125 263 l 0
 61.078125 263 l 0
 68.73046875 299 l 0
 79.783203125 351 133.096679688 376 166.908203125 361 c 0
 158.619140625 322 l 0
EndSplineSet
EndChar

StartChar: g
Encoding: 103 103 102
Width: 278
VWidth: 0
Flags: HMW
LayerCount: 2
Fore
SplineSet
188.791015625 66 m 0
 209.892578125 90 222.284179688 153 219.297851562 186 c 0
 214.563476562 239 124.051757812 246 90.384765625 177 c 0
 69.669921875 136 61.994140625 114 72.791015625 66 c 0
 79.83984375 38 129.762695312 0 188.791015625 66 c 0
193.3515625 31 m 0
 126.748046875 -33 65.4248046875 -11 44.013671875 20 c 0
 5.7041015625 75 23.0712890625 152 59.76171875 207 c 0
 108.491210938 281 207.829101562 292 237.776367188 240 c 0
 242.665039062 263 l 0
 284.665039062 263 l 0
 235.139648438 30 l 0
 208.569335938 -95 146.381835938 -110 90.3818359375 -110 c 0
 31.3818359375 -110 -3.85546875 -97 1.236328125 -26 c 0
 44.236328125 -26 l 0
 36.7099609375 -52 57.458984375 -72 97.458984375 -72 c 0
 136.458984375 -72 180.284179688 -54 193.3515625 31 c 0
EndSplineSet
EndChar

StartChar: h
Encoding: 104 104 103
Width: 278
VWidth: 0
Flags: HMW
LayerCount: 2
Fore
SplineSet
86.734375 233 m 0
 115.8359375 257 145.0234375 272 176.0234375 272 c 0
 217.0234375 272 256.134765625 249 245.294921875 198 c 0
 203.208007812 0 l 0
 161.208007812 0 l 0
 201.59375 190 l 0
 207.333007812 217 193.734375 233 159.734375 233 c 0
 119.734375 233 93.0576171875 211 76.318359375 184 c 0
 37.2080078125 0 l 0
 -4.7919921875 0 l 0
 72.7919921875 365 l 0
 114.791992188 365 l 0
 86.734375 233 l 0
EndSplineSet
EndChar

StartChar: i
Encoding: 105 105 104
Width: 111
VWidth: 0
Flags: HMW
LayerCount: 2
Fore
SplineSet
-4.7919921875 0 m 0
 51.1103515625 263 l 0
 93.1103515625 263 l 0
 37.2080078125 0 l 0
 -4.7919921875 0 l 0
72.7919921875 365 m 0
 114.791992188 365 l 0
 103.100585938 310 l 0
 61.1005859375 310 l 0
 72.7919921875 365 l 0
EndSplineSet
EndChar

StartChar: j
Encoding: 106 106 105
Width: 111
VWidth: 0
Flags: HMW
LayerCount: 2
Fore
SplineSet
42.09765625 -32 m 0
 29.34375 -92 14.517578125 -110 -60.482421875 -110 c 0
 -52.4052734375 -72 l 0
 -20.830078125 -74 -7.341796875 -67 1.373046875 -26 c 0
 62.8017578125 263 l 0
 104.801757812 263 l 0
 42.09765625 -32 l 0
84.482421875 365 m 0
 126.482421875 365 l 0
 114.791992188 310 l 0
 72.7919921875 310 l 0
 84.482421875 365 l 0
EndSplineSet
EndChar

StartChar: k
Encoding: 107 107 106
Width: 250
VWidth: 0
Flags: HMW
LayerCount: 2
Fore
SplineSet
72.7919921875 365 m 0
 114.791992188 365 l 0
 69.3046875 151 l 0
 213.110351562 263 l 0
 268.110351562 263 l 0
 147.130859375 169 l 0
 217.208007812 0 l 0
 166.208007812 0 l 0
 107.329101562 137 l 0
 57.6142578125 96 l 0
 37.2080078125 0 l 0
 -4.7919921875 0 l 0
 72.7919921875 365 l 0
EndSplineSet
EndChar

StartChar: l
Encoding: 108 108 107
Width: 111
VWidth: 0
Flags: HMW
LayerCount: 2
Fore
SplineSet
72.7919921875 365 m 0
 114.791992188 365 l 0
 37.2080078125 0 l 0
 -4.7919921875 0 l 0
 72.7919921875 365 l 0
EndSplineSet
EndChar

StartChar: m
Encoding: 109 109 108
Width: 416
VWidth: 0
Flags: HMW
LayerCount: 2
Fore
SplineSet
85.326171875 180 m 0
 47.06640625 0 l 0
 5.06640625 0 l 0
 60.96875 263 l 0
 102.96875 263 l 0
 97.8671875 239 l 0
 152.0703125 287 225.794921875 281 243.8046875 234 c 0
 309.62109375 299 409.51953125 275 394.427734375 204 c 0
 351.06640625 0 l 0
 309.06640625 0 l 0
 350.727539062 196 l 0
 358.166992188 231 330.8671875 239 309.8671875 239 c 0
 262.8671875 239 238.814453125 187 237.326171875 180 c 0
 199.06640625 0 l 0
 157.06640625 0 l 0
 199.15234375 198 l 0
 204.891601562 225 189.8671875 239 161.8671875 239 c 0
 107.8671875 239 86.6015625 186 85.326171875 180 c 0
EndSplineSet
EndChar

StartChar: n
Encoding: 110 110 109
Width: 278
VWidth: 0
Flags: HMW
LayerCount: 2
Fore
SplineSet
96.615234375 233 m 0
 117.015625 249 150.1171875 273 186.904296875 272 c 0
 226.904296875 272 265.802734375 248 255.174804688 198 c 0
 213.088867188 0 l 0
 171.088867188 0 l 0
 211.474609375 190 l 0
 217.426757812 218 203.615234375 233 169.615234375 233 c 0
 113.615234375 233 86.19921875 184 86.19921875 184 c 0
 47.0888671875 0 l 0
 5.0888671875 0 l 0
 60.9912109375 263 l 0
 102.991210938 263 l 0
 96.615234375 233 l 0
EndSplineSet
EndChar

StartChar: o
Encoding: 111 111 110
Width: 278
VWidth: 0
Flags: HMW
LayerCount: 2
Fore
SplineSet
69.6806640625 233 m 0
 123.733398438 285 208.733398438 285 242.680664062 233 c 0
 274.415039062 180 253.584960938 82 199.319335938 29 c 0
 143.266601562 -23 58.2666015625 -23 26.3193359375 29 c 0
 -5.4150390625 82 15.4150390625 180 69.6806640625 233 c 0
178.758789062 64 m 0
 205.411132812 100 218.588867188 162 207.241210938 198 c 0
 193.59375 242 122.59375 242 91.2412109375 198 c 0
 61.5263671875 157 51.048828125 103 62.7587890625 64 c 0
 75.40625 20 146.40625 20 178.758789062 64 c 0
EndSplineSet
EndChar

StartChar: p
Encoding: 112 112 111
Width: 278
VWidth: 0
Flags: HMW
LayerCount: 2
Fore
SplineSet
64.6806640625 28 m 0
 35.3486328125 -110 l 0
 -6.6513671875 -110 l 0
 72.6318359375 263 l 0
 114.631835938 263 l 0
 108.04296875 232 l 0
 166.307617188 285 236.733398438 287 269.04296875 232 c 0
 291.177734375 195 295.197265625 101 225.680664062 28 c 0
 193.454101562 -6 102.65234375 -38 64.6806640625 28 c 0
201.120117188 63 m 0
 237.047851562 105 243.73828125 160 227.303710938 205 c 0
 214.16796875 242 152.805664062 245 120.666015625 202 c 0
 97.076171875 171 68.0234375 119 90.482421875 60 c 0
 101.893554688 29 155.854492188 10 201.120117188 63 c 0
EndSplineSet
EndChar

StartChar: q
Encoding: 113 113 112
Width: 278
VWidth: 0
Flags: HMW
LayerCount: 2
Fore
SplineSet
80.24609375 233 m 0
 119.53515625 272 191.061523438 298 236.24609375 233 c 0
 242.622070312 263 l 0
 284.622070312 263 l 0
 205.338867188 -110 l 0
 163.338867188 -110 l 0
 192.671875 28 l 0
 135.706054688 -33 57.1689453125 -12 36.671875 28 c 0
 -6.048828125 114 53.7197265625 207 80.24609375 233 c 0
180.685546875 61 m 0
 212.125 96 226.516601562 159 212.806640625 198 c 0
 197.221679688 247 138.221679688 247 102.380859375 196 c 0
 85.279296875 172 52.951171875 114 79.4111328125 55 c 0
 88.947265625 34 133.420898438 8 180.685546875 61 c 0
EndSplineSet
EndChar

StartChar: r
Encoding: 114 114 113
Width: 166
VWidth: 0
Flags: HMW
LayerCount: 2
Fore
SplineSet
188.903320312 272 m 0
 178.063476562 221 l 0
 108.338867188 227 83.009765625 169 81.3095703125 161 c 0
 47.087890625 0 l 0
 5.087890625 0 l 0
 60.990234375 263 l 0
 102.990234375 263 l 0
 94.48828125 223 l 0
 120.290039062 255 142.116210938 273 188.903320312 272 c 0
EndSplineSet
EndChar

StartChar: s
Encoding: 115 115 114
Width: 250
VWidth: 0
Flags: HMW
LayerCount: 2
Fore
SplineSet
190.577148438 190 m 0
 205.35546875 236 144.567382812 237 112.229492188 226 c 0
 83.103515625 216 74.640625 195 78.2392578125 179 c 0
 81.6259765625 162 142.92578125 154 174.012695312 145 c 0
 246.76171875 125 214.51953125 58 200.268554688 38 c 0
 155.877929688 -25 48.791015625 -16 25.6796875 7 c 0
 3.9306640625 27 -0.4560546875 44 6.046875 84 c 0
 46.046875 84 l 0
 43.0322265625 51 50.78125 31 101.35546875 29 c 0
 165.930664062 27 181.432617188 67 173.896484375 88 c 0
 167.72265625 106 128.147460938 108 80.9111328125 121 c 0
 18.5244140625 138 32.703125 200 49.37890625 222 c 0
 102.045898438 291 205.857421875 276 220.54296875 251 c 0
 229.567382812 237 238.080078125 230 231.577148438 190 c 0
 190.577148438 190 l 0
EndSplineSet
EndChar

StartChar: t
Encoding: 116 116 115
Width: 139
VWidth: 0
Flags: HMW
LayerCount: 2
Fore
SplineSet
101.276367188 33 m 0
 92.986328125 -6 l 0
 -8.2646484375 -26 16.0634765625 32 20.1015625 51 c 0
 56.236328125 221 l 0
 21.236328125 221 l 0
 30.1640625 263 l 0
 65.1640625 263 l 0
 80.8935546875 337 l 0
 122.893554688 337 l 0
 107.1640625 263 l 0
 150.1640625 263 l 0
 141.236328125 221 l 0
 98.236328125 221 l 0
 61.6767578125 49 l 0
 56.7880859375 26 82.638671875 30 101.276367188 33 c 0
EndSplineSet
EndChar

StartChar: u
Encoding: 117 117 116
Width: 278
VWidth: 0
Flags: HMW
LayerCount: 2
Fore
SplineSet
21.3486328125 67 m 0
 63.009765625 263 l 0
 105.009765625 263 l 0
 66.9619140625 84 l 0
 58.884765625 46 70.9091796875 32 108.909179688 32 c 0
 166.909179688 32 192.662109375 92 196.9140625 112 c 0
 229.009765625 263 l 0
 271.009765625 263 l 0
 215.107421875 0 l 0
 173.107421875 0 l 0
 179.696289062 31 l 0
 128.943359375 -29 1.15625 -28 21.3486328125 67 c 0
EndSplineSet
EndChar

StartChar: v
Encoding: 118 118 117
Width: 250
VWidth: 0
Flags: HMW
LayerCount: 2
Fore
SplineSet
108.376953125 58 m 0
 223.951171875 263 l 0
 270.951171875 263 l 0
 118.048828125 0 l 0
 74.048828125 0 l 0
 32.951171875 263 l 0
 79.951171875 263 l 0
 108.376953125 58 l 0
EndSplineSet
EndChar

StartChar: w
Encoding: 119 119 118
Width: 361
VWidth: 0
Flags: HMW
LayerCount: 2
Fore
SplineSet
180.951171875 263 m 0
 231.951171875 263 l 0
 242.376953125 58 l 0
 334.951171875 263 l 0
 381.951171875 263 l 0
 255.048828125 0 l 0
 208.048828125 0 l 0
 195.685546875 210 l 0
 93.048828125 0 l 0
 46.048828125 0 l 0
 30.951171875 263 l 0
 77.951171875 263 l 0
 83.376953125 58 l 0
 180.951171875 263 l 0
EndSplineSet
EndChar

StartChar: x
Encoding: 120 120 119
Width: 250
VWidth: 0
Flags: HMW
LayerCount: 2
Fore
SplineSet
-18.951171875 0 m 0
 99.744140625 135 l 0
 41.951171875 263 l 0
 89.951171875 263 l 0
 131.608398438 172 l 0
 212.951171875 263 l 0
 260.951171875 263 l 0
 146.956054688 136 l 0
 209.048828125 0 l 0
 161.048828125 0 l 0
 115.3046875 100 l 0
 29.048828125 0 l 0
 -18.951171875 0 l 0
EndSplineSet
EndChar

StartChar: y
Encoding: 121 121 120
Width: 250
VWidth: 0
Flags: HMW
LayerCount: 2
Fore
SplineSet
-6.2802734375 -66 m 0
 49.0439453125 -88 61.1591796875 -31 80.5361328125 -1 c 0
 49.6513671875 263 l 0
 93.6513671875 263 l 0
 119.352539062 64 l 0
 234.651367188 263 l 0
 278.651367188 263 l 0
 83.01953125 -74 l 0
 57.8798828125 -117 11.7294921875 -113 -14.5693359375 -105 c 0
 -6.2802734375 -66 l 0
EndSplineSet
EndChar

StartChar: z
Encoding: 122 122 121
Width: 250
VWidth: 0
Flags: HMW
LayerCount: 2
Fore
SplineSet
46.0234375 221 m 0
 54.951171875 263 l 0
 256.951171875 263 l 0
 248.661132812 224 l 0
 49.9765625 42 l 0
 198.9765625 42 l 0
 190.048828125 0 l 0
 -11.951171875 0 l 0
 -3.6611328125 39 l 0
 195.0234375 221 l 0
 46.0234375 221 l 0
EndSplineSet
EndChar

StartChar: breve
Encoding: 123 728 122
Width: 166
VWidth: 0
Flags: HMW
LayerCount: 2
Fore
SplineSet
11.439453125 361 m 0
 31.439453125 361 l 0
 23.8505859375 330 62 326 82 326 c 0
 121 326 137.212890625 327 147.801757812 358 c 0
 165.801757812 358 l 0
 150.173828125 308 115.560546875 291 72.560546875 291 c 0
 36.560546875 291 4.173828125 308 11.439453125 361 c 0
EndSplineSet
EndChar

StartChar: macron
Encoding: 124 175 123
Width: 166
VWidth: 0
Flags: HMW
LayerCount: 2
Fore
SplineSet
154.826171875 347 m 0
 147.173828125 311 l 0
 10.173828125 311 l 0
 17.826171875 347 l 0
 154.826171875 347 l 0
EndSplineSet
EndChar

StartChar: hungarumlaut
Encoding: 125 733 124
Width: 166
VWidth: 0
Flags: HMW
LayerCount: 2
Fore
SplineSet
59.1357421875 294 m 0
 124.65234375 367 l 0
 178.65234375 367 l 0
 91.1357421875 294 l 0
 59.1357421875 294 l 0
-26.439453125 296 m 0
 36.8642578125 368 l 0
 91.8642578125 368 l 0
 4.560546875 296 l 0
 -26.439453125 296 l 0
EndSplineSet
EndChar

StartChar: tilde
Encoding: 126 732 125
Width: 166
VWidth: 0
Flags: HMW
LayerCount: 2
Fore
SplineSet
141.6953125 358 m 0
 165.6953125 358 l 0
 110.188476562 238 62.2080078125 351 20.3046875 295 c 0
 -3.6953125 295 l 0
 47.5986328125 414 106.580078125 301 141.6953125 358 c 0
EndSplineSet
EndChar

StartChar: caron
Encoding: 127 711 126
Width: 166
VWidth: 0
Flags: HMW
LayerCount: 2
Fore
SplineSet
17.65234375 370 m 0
 55.65234375 370 l 0
 80.2998046875 326 l 0
 123.65234375 370 l 0
 161.65234375 370 l 0
 102.34765625 298 l 0
 46.34765625 298 l 0
 17.65234375 370 l 0
EndSplineSet
EndChar

StartChar: onesuperior
Encoding: 128 185 127
Width: 166
VWidth: 0
Flags: HMW
LayerCount: 2
Fore
SplineSet
114.168945312 358 m 0
 133.168945312 358 l 0
 86.8310546875 140 l 0
 57.8310546875 140 l 0
 89.71484375 290 l 0
 38.71484375 290 l 0
 43.603515625 313 l 0
 85.81640625 314 105.004882812 329 114.168945312 358 c 0
EndSplineSet
EndChar

StartChar: twosuperior
Encoding: 129 178 128
Width: 166
VWidth: 0
Flags: HMW
LayerCount: 2
Fore
SplineSet
-17.2509765625 140 m 0
 -12.3720703125 210 83.85546875 244 93.4931640625 247 c 0
 130.255859375 260 142.419921875 289 136.458984375 308 c 0
 128.34765625 331 95.7724609375 333 79.859375 324 c 0
 62.734375 314 51.396484375 303 46.8701171875 277 c 0
 17.8701171875 277 l 0
 22.396484375 303 32.859375 324 52.0478515625 339 c 0
 91.2119140625 368 150.787109375 366 165.497070312 327 c 0
 175.18359375 302 170.255859375 260 115.666992188 229 c 0
 87.265625 213 45.416015625 209 19.9130859375 169 c 0
 138.913085938 169 l 0
 132.749023438 140 l 0
 -17.2509765625 140 l 0
EndSplineSet
EndChar

StartChar: threesuperior
Encoding: 130 179 129
Width: 166
VWidth: 0
Flags: HMW
LayerCount: 2
Fore
SplineSet
126.317382812 252 m 0
 159.341796875 238 157.138671875 190 129.612304688 164 c 0
 98.4482421875 135 52.1103515625 124 18.1484375 143 c 0
 -2.30078125 155 -6.8369140625 176 -2.8857421875 204 c 0
 28.1142578125 204 l 0
 26.3515625 191 24.013671875 180 33.1005859375 171 c 0
 50.486328125 154 84.1240234375 157 107.225585938 181 c 0
 125.4765625 201 123.553710938 239 82.916015625 236 c 0
 63.916015625 236 l 0
 69.6552734375 263 l 0
 88.6552734375 263 l 0
 133.505859375 267 133.607421875 291 133.220703125 308 c 0
 133.109375 331 90.171875 336 70.55859375 319 c 0
 60.8583984375 311 52.0947265625 298 50.90625 283 c 0
 19.90625 283 l 0
 24.7080078125 315 46.384765625 337 64.509765625 347 c 0
 104.186523438 369 153.422851562 356 163.258789062 327 c 0
 171.370117188 304 163.080078125 265 126.317382812 252 c 0
EndSplineSet
EndChar

StartChar: foursuperior
Encoding: 131 8308 130
Width: 166
VWidth: 0
Flags: HMW
LayerCount: 2
Fore
SplineSet
91.8359375 216 m 0
 110.965820312 306 l 0
 22.8359375 216 l 0
 91.8359375 216 l 0
127.318359375 350 m 0
 147.318359375 350 l 0
 118.8359375 216 l 0
 150.8359375 216 l 0
 145.309570312 190 l 0
 113.309570312 190 l 0
 102.681640625 140 l 0
 75.681640625 140 l 0
 86.3095703125 190 l 0
 -6.6904296875 190 l 0
 -0.3134765625 220 l 0
 127.318359375 350 l 0
EndSplineSet
EndChar

StartChar: fraction
Encoding: 132 8260 131
Width: 83
VWidth: 0
Flags: HMW
LayerCount: 2
Fore
SplineSet
175.791992188 354 m 0
 203.791992188 354 l 0
 -97.7919921875 -11 l 0
 -125.791992188 -11 l 0
 175.791992188 354 l 0
EndSplineSet
EndChar

StartChar: percent
Encoding: 136 37 135
Width: 444
VWidth: 0
Flags: HMW
LayerCount: 2
Fore
SplineSet
345.791992188 355 m 0
 379.791992188 355 l 0
 107.208007812 -10 l 0
 73.2080078125 -10 l 0
 345.791992188 355 l 0
397.604492188 133 m 0
 423.014648438 102 411.111328125 46 371.309570312 14 c 0
 333.5078125 -18 277.5078125 -18 253.309570312 14 c 0
 227.111328125 46 239.014648438 102 277.604492188 133 c 0
 316.618164062 166 372.618164062 166 397.604492188 133 c 0
187.864257812 313 m 0
 213.275390625 282 201.372070312 226 161.5703125 194 c 0
 123.768554688 162 67.7685546875 162 43.5703125 194 c 0
 17.3720703125 226 29.275390625 282 67.8642578125 313 c 0
 106.87890625 346 162.87890625 346 187.864257812 313 c 0
367.502929688 109 m 0
 354.75390625 129 318.75390625 129 297.502929688 109 c 0
 273.889648438 92 266.237304688 56 282.624023438 39 c 0
 295.373046875 19 331.373046875 19 352.624023438 39 c 0
 376.237304688 56 383.889648438 92 367.502929688 109 c 0
142.883789062 219 m 0
 166.497070312 236 174.149414062 272 157.762695312 289 c 0
 145.013671875 309 109.013671875 309 87.7626953125 289 c 0
 64.1494140625 272 56.4970703125 236 72.8837890625 219 c 0
 85.6328125 199 121.6328125 199 142.883789062 219 c 0
EndSplineSet
EndChar

StartChar: perthousand
Encoding: 137 8240 136
Width: 500
VWidth: 0
Flags: HMW
LayerCount: 2
Fore
SplineSet
283.439453125 369 m 0
 318.439453125 369 l 0
 43.0927734375 -9 l 0
 8.0927734375 -9 l 0
 283.439453125 369 l 0
76.44921875 322 m 0
 54.4111328125 303 47.734375 281 60.2705078125 260 c 0
 69.294921875 246 98.169921875 236 123.420898438 256 c 0
 147.096679688 278 151.7734375 300 138.024414062 320 c 0
 127.787109375 333 100.913085938 343 76.44921875 322 c 0
194.411132812 96 m 0
 173.373046875 77 165.696289062 55 179.020507812 33 c 0
 187.256835938 20 216.131835938 10 241.3828125 30 c 0
 266.05859375 52 269.735351562 74 255.986328125 94 c 0
 245.537109375 106 218.663085938 116 194.411132812 96 c 0
373.411132812 96 m 0
 351.373046875 77 344.696289062 55 357.020507812 33 c 0
 366.256835938 20 395.131835938 10 420.3828125 30 c 0
 444.05859375 52 448.735351562 74 434.986328125 94 c 0
 424.537109375 106 397.663085938 116 373.411132812 96 c 0
65.1884765625 349 m 0
 96.0771484375 372 153.2265625 368 167.424804688 336 c 0
 184.8359375 305 179.333984375 265 137.106445312 231 c 0
 101.3671875 204 50.642578125 210 31.01953125 240 c 0
 12.1591796875 283 29.8740234375 324 65.1884765625 349 c 0
183.150390625 123 m 0
 214.0390625 146 271.189453125 142 285.387695312 110 c 0
 303.797851562 79 297.083007812 38 256.069335938 5 c 0
 220.541992188 -21 168.817382812 -15 149.981445312 14 c 0
 129.909179688 56 147.836914062 98 183.150390625 123 c 0
362.150390625 123 m 0
 393.0390625 146 450.189453125 142 464.387695312 110 c 0
 481.797851562 79 476.083007812 38 434.069335938 5 c 0
 398.541992188 -21 347.817382812 -15 327.981445312 14 c 0
 308.909179688 56 325.836914062 98 362.150390625 123 c 0
EndSplineSet
EndChar

StartChar: degree
Encoding: 138 176 137
Width: 200
VWidth: 0
Flags: HMW
LayerCount: 2
Fore
SplineSet
144.771484375 316 m 0
 129.235351562 337 96.2353515625 337 70.771484375 316 c 0
 46.5205078125 296 39.29296875 262 54.0419921875 242 c 0
 70.578125 221 104.578125 221 128.041992188 242 c 0
 153.505859375 263 160.520507812 296 144.771484375 316 c 0
164.384765625 333 m 0
 187.220703125 304 177.017578125 256 140.641601562 226 c 0
 105.689453125 198 58.689453125 198 35.6416015625 226 c 0
 12.8056640625 255 23.0078125 303 58.171875 332 c 0
 93.3369140625 361 141.336914062 361 164.384765625 333 c 0
EndSplineSet
EndChar

StartChar: periodcentered
Encoding: 139 183 138
Width: 139
VWidth: 0
Flags: HMW
LayerCount: 2
Fore
SplineSet
37.4111328125 159 m 0
 50.5888671875 221 l 0
 112.588867188 221 l 0
 99.4111328125 159 l 0
 37.4111328125 159 l 0
EndSplineSet
EndChar

StartChar: bullet
Encoding: 140 8226 139
Width: 175
VWidth: 0
Flags: HMW
LayerCount: 2
Fore
SplineSet
121.647460938 128 m 0
 92.5458984375 104 52.5458984375 104 33.6474609375 128 c 0
 14.7490234375 152 23.2509765625 192 52.3525390625 216 c 0
 81.4541015625 240 121.454101562 240 140.352539062 216 c 0
 159.250976562 192 150.749023438 152 121.647460938 128 c 0
EndSplineSet
EndChar

StartChar: guilsinglleft
Encoding: 141 8249 140
Width: 166
VWidth: 0
Flags: HMW
LayerCount: 2
Fore
SplineSet
41.111328125 114 m 0
 50.888671875 160 l 0
 139.216796875 218 l 0
 130.077148438 175 l 0
 72 137 l 0
 113.922851562 99 l 0
 104.783203125 56 l 0
 41.111328125 114 l 0
EndSplineSet
EndChar

StartChar: guilsinglright
Encoding: 142 8250 141
Width: 166
VWidth: 0
Flags: HMW
LayerCount: 2
Fore
SplineSet
117.111328125 114 m 0
 28.783203125 56 l 0
 37.9228515625 99 l 0
 96 137 l 0
 54.0771484375 175 l 0
 63.216796875 218 l 0
 126.888671875 160 l 0
 117.111328125 114 l 0
EndSplineSet
EndChar

StartChar: guillemotleft
Encoding: 143 171 142
Width: 278
VWidth: 0
Flags: HMW
LayerCount: 2
Fore
SplineSet
41.32421875 115 m 0
 50.888671875 160 l 0
 139.216796875 218 l 0
 130.077148438 175 l 0
 72 137 l 0
 113.922851562 99 l 0
 104.783203125 56 l 0
 41.32421875 115 l 0
144.32421875 115 m 0
 153.888671875 160 l 0
 242.216796875 218 l 0
 233.077148438 175 l 0
 175 137 l 0
 216.922851562 99 l 0
 207.783203125 56 l 0
 144.32421875 115 l 0
EndSplineSet
EndChar

StartChar: guillemotright
Encoding: 144 187 143
Width: 278
VWidth: 0
Flags: HMW
LayerCount: 2
Fore
SplineSet
131.783203125 56 m 0
 140.922851562 99 l 0
 199.212890625 138 l 0
 157.077148438 175 l 0
 166.216796875 218 l 0
 229.888671875 160 l 0
 220.32421875 115 l 0
 131.783203125 56 l 0
28.783203125 56 m 0
 37.9228515625 99 l 0
 96.212890625 138 l 0
 54.0771484375 175 l 0
 63.216796875 218 l 0
 126.888671875 160 l 0
 117.32421875 115 l 0
 28.783203125 56 l 0
EndSplineSet
EndChar

StartChar: paragraph
Encoding: 145 182 144
Width: 268
VWidth: 0
Flags: HMW
LayerCount: 2
Fore
SplineSet
45.990234375 185 m 0
 32.98046875 232 57.970703125 279 75.072265625 303 c 0
 93.1728515625 327 118.69921875 353 169.25 365 c 0
 309.25 365 l 0
 301.598632812 329 l 0
 272.598632812 329 l 0
 183.75 -89 l 0
 150.75 -89 l 0
 239.598632812 329 l 0
 194.598632812 329 l 0
 105.75 -89 l 0
 72.75 -89 l 0
 118.236328125 125 l 0
 66.724609375 132 52.888671875 161 45.990234375 185 c 0
EndSplineSet
EndChar

StartChar: section
Encoding: 146 167 145
Width: 278
VWidth: 0
Flags: HMW
LayerCount: 2
Fore
SplineSet
74.47265625 126 m 0
 90.30859375 97 123.120117188 82 160.744140625 52 c 0
 202.357421875 69 214.921875 114 201.448242188 140 c 0
 185.61328125 169 152.80078125 184 115.177734375 214 c 0
 73.564453125 197 60.9990234375 152 74.47265625 126 c 0
116.299804688 -63 m 0
 158.55078125 -43 151.965820312 6 130.516601562 18 c 0
 78.6806640625 47 51.419921875 74 38.24609375 92 c 0
 15.47265625 126 18.2021484375 200 95.5791015625 230 c 0
 70.443359375 267 89.5205078125 305 119.684570312 334 c 0
 165.037109375 378 247.186523438 374 261.259765625 332 c 0
 268.008789062 312 275.520507812 305 261.955078125 260 c 0
 222.955078125 260 l 0
 238.756835938 292 216.235351562 346 159.921875 321 c 0
 138.795898438 311 96.955078125 260 171.00390625 232 c 0
 194.090820312 223 243.163085938 181 247.700195312 160 c 0
 259.859375 109 238.59375 56 179.91796875 34 c 0
 207.627929688 -5 185.637695312 -52 157.32421875 -77 c 0
 116.671875 -113 64.8212890625 -117 27.7099609375 -94 c 0
 1.32421875 -77 -0.38671875 -38 10.4150390625 -6 c 0
 49.4150390625 -6 l 0
 33 -55 74.048828125 -83 116.299804688 -63 c 0
EndSplineSet
EndChar

StartChar: plus
Encoding: 147 43 146
Width: 292
VWidth: 0
Flags: HMW
LayerCount: 2
Fore
SplineSet
131.0390625 140 m 0
 152.719726562 242 l 0
 190.719726562 242 l 0
 169.0390625 140 l 0
 271.0390625 140 l 0
 262.9609375 102 l 0
 160.9609375 102 l 0
 139.280273438 0 l 0
 101.280273438 0 l 0
 122.9609375 102 l 0
 20.9609375 102 l 0
 29.0390625 140 l 0
 131.0390625 140 l 0
EndSplineSet
EndChar

StartChar: multiply
Encoding: 148 215 147
Width: 292
VWidth: 0
Flags: HMW
LayerCount: 2
Fore
SplineSet
76.931640625 239 m 0
 151.739257812 144 l 0
 266.931640625 239 l 0
 287.405273438 213 l 0
 171 117 l 0
 246.594726562 21 l 0
 215.068359375 -5 l 0
 140.260742188 90 l 0
 25.068359375 -5 l 0
 4.5947265625 21 l 0
 121 117 l 0
 45.4052734375 213 l 0
 76.931640625 239 l 0
EndSplineSet
EndChar

StartChar: divide
Encoding: 149 247 148
Width: 292
VWidth: 0
Flags: HMW
LayerCount: 2
Fore
SplineSet
144.506835938 240 m 0
 197.506835938 240 l 0
 186.241210938 187 l 0
 133.241210938 187 l 0
 144.506835938 240 l 0
93.4931640625 0 m 0
 104.758789062 53 l 0
 157.758789062 53 l 0
 146.493164062 0 l 0
 93.4931640625 0 l 0
271.250976562 140 m 0
 263.173828125 102 l 0
 21.173828125 102 l 0
 29.2509765625 140 l 0
 271.250976562 140 l 0
EndSplineSet
EndChar

StartChar: plusminus
Encoding: 150 177 149
Width: 292
VWidth: 0
Flags: HMW
LayerCount: 2
Fore
SplineSet
45.052734375 206 m 0
 143.052734375 206 l 0
 164.733398438 308 l 0
 202.733398438 308 l 0
 181.052734375 206 l 0
 279.052734375 206 l 0
 271.401367188 170 l 0
 173.401367188 170 l 0
 151.719726562 68 l 0
 113.719726562 68 l 0
 135.401367188 170 l 0
 37.4013671875 170 l 0
 45.052734375 206 l 0
-4.2314453125 40 m 0
 247.768554688 40 l 0
 239.266601562 0 l 0
 -12.7333984375 0 l 0
 -4.2314453125 40 l 0
EndSplineSet
EndChar

StartChar: endash
Encoding: 151 8211 150
Width: 278
VWidth: 0
Flags: HMW
LayerCount: 2
Fore
SplineSet
281.932617188 157 m 0
 274.067382812 120 l 0
 -8.9326171875 120 l 0
 -1.0673828125 157 l 0
 281.932617188 157 l 0
EndSplineSet
EndChar

StartChar: emdash
Encoding: 152 8212 151
Width: 500
VWidth: 0
Flags: HMW
LayerCount: 2
Fore
SplineSet
503.932617188 157 m 0
 496.067382812 120 l 0
 -8.9326171875 120 l 0
 -1.0673828125 157 l 0
 503.932617188 157 l 0
EndSplineSet
EndChar

StartChar: minus
Encoding: 153 8722 152
Width: 292
VWidth: 0
Flags: HMW
LayerCount: 2
Fore
SplineSet
276.0390625 140 m 0
 267.9609375 102 l 0
 15.9609375 102 l 0
 24.0390625 140 l 0
 276.0390625 140 l 0
EndSplineSet
EndChar

StartChar: bracketleft
Encoding: 154 91 153
Width: 139
VWidth: 0
Flags: HMW
LayerCount: 2
Fore
SplineSet
82.1630859375 365 m 0
 175.163085938 365 l 0
 166.236328125 323 l 0
 116.236328125 323 l 0
 33.763671875 -65 l 0
 83.763671875 -65 l 0
 74.8369140625 -107 l 0
 -18.1630859375 -107 l 0
 82.1630859375 365 l 0
EndSplineSet
EndChar

StartChar: bracketright
Encoding: 155 93 154
Width: 139
VWidth: 0
Flags: HMW
LayerCount: 2
Fore
SplineSet
155.163085938 365 m 0
 54.8369140625 -107 l 0
 -38.1630859375 -107 l 0
 -29.236328125 -65 l 0
 20.763671875 -65 l 0
 103.236328125 323 l 0
 53.236328125 323 l 0
 62.1630859375 365 l 0
 155.163085938 365 l 0
EndSplineSet
EndChar

StartChar: dagger
Encoding: 156 8224 155
Width: 278
VWidth: 0
Flags: HMW
LayerCount: 2
Fore
SplineSet
41.2939453125 262 m 0
 138.293945312 262 l 0
 160.1875 365 l 0
 207.1875 365 l 0
 185.293945312 262 l 0
 282.293945312 262 l 0
 273.3671875 220 l 0
 176.3671875 220 l 0
 112.8125 -79 l 0
 65.8125 -79 l 0
 129.3671875 220 l 0
 32.3671875 220 l 0
 41.2939453125 262 l 0
EndSplineSet
EndChar

StartChar: daggerdbl
Encoding: 157 8225 156
Width: 278
VWidth: 0
Flags: HMW
LayerCount: 2
Fore
SplineSet
32.3671875 220 m 0
 41.2939453125 262 l 0
 138.293945312 262 l 0
 160.1875 365 l 0
 207.1875 365 l 0
 185.293945312 262 l 0
 282.293945312 262 l 0
 273.3671875 220 l 0
 176.3671875 220 l 0
 143.6328125 66 l 0
 240.6328125 66 l 0
 231.706054688 24 l 0
 134.706054688 24 l 0
 112.8125 -79 l 0
 65.8125 -79 l 0
 87.7060546875 24 l 0
 -9.2939453125 24 l 0
 -0.3671875 66 l 0
 96.6328125 66 l 0
 129.3671875 220 l 0
 32.3671875 220 l 0
EndSplineSet
EndChar

StartChar: braceleft
Encoding: 158 123 157
Width: 167
VWidth: 0
Flags: HMW
LayerCount: 2
Fore
SplineSet
25.671875 -33 m 0
 43.7392578125 52 l 0
 51.1787109375 87 43.642578125 108 17.85546875 109 c 0
 25.9326171875 147 l 0
 52.14453125 148 68.6083984375 169 76.0478515625 204 c 0
 94.328125 290 l 0
 101.341796875 323 119.26953125 365 174.26953125 365 c 0
 188.26953125 365 l 0
 180.405273438 328 l 0
 160.405273438 328 140.767578125 325 134.815429688 297 c 0
 114.41015625 201 l 0
 109.096679688 176 88.4443359375 140 61.8935546875 128 c 0
 83.3427734375 116 88.69140625 80 83.376953125 55 c 0
 63.1845703125 -40 l 0
 57.232421875 -68 75.5947265625 -71 95.5947265625 -71 c 0
 87.73046875 -108 l 0
 73.73046875 -108 l 0
 18.73046875 -108 18.658203125 -66 25.671875 -33 c 0
EndSplineSet
EndChar

StartChar: braceright
Encoding: 159 125 158
Width: 167
VWidth: 0
Flags: HMW
LayerCount: 2
Fore
SplineSet
-15.26953125 -108 m 0
 -29.26953125 -108 l 0
 -21.4052734375 -71 l 0
 -1.4052734375 -71 18.232421875 -68 24.1845703125 -40 c 0
 44.376953125 55 l 0
 49.69140625 80 70.3427734375 116 96.8935546875 128 c 0
 75.4443359375 140 70.0966796875 176 75.41015625 201 c 0
 95.8154296875 297 l 0
 101.767578125 325 83.4052734375 328 63.4052734375 328 c 0
 71.26953125 365 l 0
 85.26953125 365 l 0
 140.26953125 365 140.341796875 323 133.328125 290 c 0
 115.047851562 204 l 0
 107.608398438 169 115.14453125 148 140.932617188 147 c 0
 132.85546875 109 l 0
 106.642578125 108 90.1787109375 87 82.7392578125 52 c 0
 64.671875 -33 l 0
 57.658203125 -66 39.73046875 -108 -15.26953125 -108 c 0
EndSplineSet
EndChar

StartChar: at
Encoding: 160 64 159
Width: 507
VWidth: 0
Flags: HMW
LayerCount: 2
Fore
SplineSet
250.541015625 80 m 0
 292.831054688 119 299.569335938 146 310.008789062 181 c 0
 323.149414062 224 272.336914062 239 231.323242188 206 c 0
 209.497070312 188 166.14453125 144 177.241210938 88 c 0
 183.439453125 56 220.801757812 53 250.541015625 80 c 0
311.908203125 -50 m 0
 178.768554688 -93 79.3818359375 -76 28.8115234375 6 c 0
 -4.1357421875 58 -9.9912109375 181 114.177734375 290 c 0
 221.158203125 384 392.771484375 401 462.94140625 303 c 0
 517.57421875 226 480.342773438 112 383.526367188 47 c 0
 339.149414062 17 258.362304688 18 265.352539062 65 c 0
 210.51171875 14 156.700195312 29 141.801757812 53 c 0
 107.91796875 110 153.796875 180 192.874023438 218 c 0
 244.713867188 269 329.83984375 279 335.874023438 218 c 0
 352.25 248 l 0
 394.25 248 l 0
 315.4296875 103 l 0
 290.864257812 58 332.526367188 47 389.666015625 90 c 0
 422.98046875 115 476.897460938 204 422.4140625 277 c 0
 365.356445312 352 248.443359375 343 153.202148438 276 c 0
 88.4248046875 230 13.8544921875 105 76 21 c 0
 113.947265625 -31 198.05859375 -54 302.560546875 -14 c 0
 311.908203125 -50 l 0
EndSplineSet
EndChar

StartChar: ampersand
Encoding: 161 38 160
Width: 333
VWidth: 0
Flags: HMW
LayerCount: 2
Fore
SplineSet
164.813476562 190 m 0
 216.958007812 106 l 0
 234.209960938 126 241.4609375 146 247.499023438 165 c 0
 287.499023438 165 l 0
 280.122070312 135 261.3203125 103 237.369140625 75 c 0
 282.427734375 0 l 0
 229.427734375 0 l 0
 206.716796875 39 l 0
 118.137695312 -39 31.876953125 -12 13.7412109375 25 c 0
 -5.181640625 63 8.6826171875 100 23.2099609375 126 c 0
 41.2236328125 159 85.1123046875 182 109.875976562 195 c 0
 83.890625 228 77.66796875 274 107.745117188 312 c 0
 152.6484375 368 246.498046875 372 262.532226562 311 c 0
 273.030273438 271 250.702148438 213 164.813476562 190 c 0
125.349609375 169 m 0
 76.3349609375 136 41.4462890625 113 51.03125 64 c 0
 56.2919921875 37 104.790039062 -3 188.456054688 66 c 0
 125.349609375 169 l 0
222.494140625 292 m 0
 214.145507812 328 161.720703125 326 139.706054688 293 c 0
 121.1171875 262 132.590820312 236 151.33984375 216 c 0
 210.528320312 231 227.455078125 273 222.494140625 292 c 0
EndSplineSet
EndChar

StartChar: asciicircum
Encoding: 162 94 161
Width: 234
VWidth: 0
Flags: HMW
LayerCount: 2
Fore
SplineSet
-3.193359375 166 m 0
 115.193359375 356 l 0
 152.193359375 356 l 0
 189.806640625 166 l 0
 153.806640625 166 l 0
 122.990234375 308 l 0
 32.806640625 166 l 0
 -3.193359375 166 l 0
EndSplineSet
EndChar

StartChar: bar
Encoding: 163 124 162
Width: 130
VWidth: 0
Flags: HMW
LayerCount: 2
Fore
SplineSet
100.26953125 365 m 0
 130.26953125 365 l 0
 29.73046875 -108 l 0
 -0.26953125 -108 l 0
 100.26953125 365 l 0
EndSplineSet
EndChar

StartChar: brokenbar
Encoding: 164 166 163
Width: 130
VWidth: 0
Flags: HMW
LayerCount: 2
Fore
SplineSet
-0.26953125 -108 m 0
 40.541015625 84 l 0
 70.541015625 84 l 0
 29.73046875 -108 l 0
 -0.26953125 -108 l 0
100.26953125 365 m 0
 130.26953125 365 l 0
 89.458984375 173 l 0
 59.458984375 173 l 0
 100.26953125 365 l 0
EndSplineSet
EndChar

StartChar: logicalnot
Encoding: 165 172 164
Width: 292
VWidth: 0
Flags: HMW
LayerCount: 2
Fore
SplineSet
34.87890625 182 m 0
 286.87890625 182 l 0
 257.12109375 42 l 0
 215.12109375 42 l 0
 235.951171875 140 l 0
 25.951171875 140 l 0
 34.87890625 182 l 0
EndSplineSet
EndChar

StartChar: copyright
Encoding: 166 169 165
Width: 368
VWidth: 0
Flags: HMW
LayerCount: 2
Fore
SplineSet
326.001953125 300 m 0
 273.818359375 365 168.393554688 363 91.001953125 300 c 0
 14.3984375 236 -10.919921875 131 41.05078125 65 c 0
 93.0224609375 -1 198.447265625 1 276.05078125 65 c 0
 353.655273438 129 377.973632812 234 326.001953125 300 c 0
347.615234375 317 m 0
 409.036132812 239 375.31640625 118 290.225585938 47 c 0
 204.346679688 -23 81.6455078125 -31 19.2255859375 47 c 0
 -41.982421875 126 -8.263671875 247 76.615234375 317 c 0
 162.70703125 388 285.407226562 396 347.615234375 317 c 0
244.055664062 145 m 0
 271.055664062 145 l 0
 254.403320312 109 238.002929688 93 213.452148438 81 c 0
 181.263671875 66 116.201171875 61 93.1669921875 122 c 0
 80.96875 154 93.234375 207 118.036132812 239 c 0
 159.875976562 290 216.21484375 301 256.750976562 280 c 0
 276.625 270 286.311523438 245 286.147460938 216 c 0
 260.147460938 216 l 0
 257.547851562 232 256.673828125 242 246.01171875 253 c 0
 227.837890625 271 176.900390625 276 139.698242188 228 c 0
 116.321289062 198 109.393554688 156 119.504882812 133 c 0
 128.25390625 113 154.389648438 76 211.765625 106 c 0
 231.104492188 117 237.717773438 134 244.055664062 145 c 0
EndSplineSet
EndChar

StartChar: registered
Encoding: 167 174 166
Width: 368
VWidth: 0
Flags: HMW
LayerCount: 2
Fore
SplineSet
216.775390625 266 m 0
 158.775390625 266 l 0
 143.470703125 194 l 0
 201.470703125 194 l 0
 242.470703125 194 259.447265625 208 264.123046875 230 c 0
 268.586914062 251 260.775390625 266 216.775390625 266 c 0
76.615234375 317 m 0
 162.70703125 388 285.407226562 396 347.615234375 317 c 0
 409.036132812 239 375.31640625 118 290.225585938 47 c 0
 204.346679688 -23 81.6455078125 -31 19.2255859375 47 c 0
 -41.982421875 126 -8.263671875 247 76.615234375 317 c 0
91.001953125 300 m 0
 14.3984375 236 -10.919921875 131 41.05078125 65 c 0
 93.0224609375 -1 198.447265625 1 276.05078125 65 c 0
 353.655273438 129 377.973632812 234 326.001953125 300 c 0
 273.818359375 365 168.393554688 363 91.001953125 300 c 0
212.794921875 172 m 0
 251.389648438 76 l 0
 220.389648438 76 l 0
 185.794921875 172 l 0
 138.794921875 172 l 0
 118.389648438 76 l 0
 93.3896484375 76 l 0
 138.451171875 288 l 0
 228.451171875 288 l 0
 270.6640625 289 296.987304688 267 289.3359375 231 c 0
 280.1953125 188 242.794921875 172 212.794921875 172 c 0
EndSplineSet
EndChar

StartChar: trademark
Encoding: 168 8482 167
Width: 500
VWidth: 0
Flags: HMW
LayerCount: 2
Fore
SplineSet
260.318359375 371 m 0
 315.318359375 371 l 0
 345.498046875 226 l 0
 435.318359375 371 l 0
 491.318359375 371 l 0
 446.681640625 161 l 0
 412.681640625 161 l 0
 450.303710938 338 l 0
 340.681640625 161 l 0
 320.681640625 161 l 0
 287.091796875 337 l 0
 249.681640625 161 l 0
 215.681640625 161 l 0
 260.318359375 371 l 0
50.318359375 371 m 0
 223.318359375 371 l 0
 216.94140625 341 l 0
 149.94140625 341 l 0
 111.681640625 161 l 0
 73.681640625 161 l 0
 111.94140625 341 l 0
 43.94140625 341 l 0
 50.318359375 371 l 0
EndSplineSet
EndChar

StartChar: ordmasculine
Encoding: 169 186 168
Width: 182
VWidth: 0
Flags: HMW
LayerCount: 2
Fore
SplineSet
6.369140625 178 m 0
 140.369140625 178 l 0
 134.630859375 151 l 0
 0.630859375 151 l 0
 6.369140625 178 l 0
53.3984375 244 m 0
 61.296875 220 100.083984375 219 121.3984375 244 c 0
 135.798828125 260 148.364257812 305 139.828125 326 c 0
 128.567382812 353 92.3544921875 352 71.2529296875 328 c 0
 52.5771484375 306 46.07421875 266 53.3984375 244 c 0
31.359375 225 m 0
 14.3115234375 253 23.27734375 314 57.50390625 348 c 0
 87.66796875 377 138.305664062 380 161.50390625 348 c 0
 180.190429688 323 166.098632812 252 135.359375 225 c 0
 98.5576171875 193 49.1953125 196 31.359375 225 c 0
EndSplineSet
EndChar

StartChar: ordfeminine
Encoding: 170 170 169
Width: 185
VWidth: 0
Flags: HMW
LayerCount: 2
Fore
SplineSet
138.368164062 178 m 0
 132.62890625 151 l 0
 -1.37109375 151 l 0
 4.3681640625 178 l 0
 138.368164062 178 l 0
16.03515625 247 m 0
 29.701171875 316 115.32421875 286 134.42578125 310 c 0
 138.0390625 327 l 0
 146.62890625 358 67.416015625 357 62.1259765625 318 c 0
 39.1259765625 318 l 0
 46.580078125 386 182.580078125 386 165.1015625 332 c 0
 145.971679688 242 l 0
 143.208984375 229 145.93359375 223 159.571289062 226 c 0
 155.107421875 205 l 0
 133.83203125 199 117.107421875 205 117.358398438 225 c 0
 82.556640625 193 1.494140625 188 16.03515625 247 c 0
41.4599609375 249 m 0
 35.89453125 204 103.145507812 224 122.522460938 254 c 0
 129.112304688 285 l 0
 106.135742188 271 48.1123046875 285 41.4599609375 249 c 0
EndSplineSet
EndChar

StartChar: numbersign
Encoding: 171 35 170
Width: 278
VWidth: 0
Flags: HMW
LayerCount: 2
Fore
SplineSet
123.608398438 211 m 0
 93.4541015625 135 l 0
 155.454101562 135 l 0
 185.608398438 211 l 0
 123.608398438 211 l 0
140.579101562 352 m 0
 179.579101562 352 l 0
 140.536132812 253 l 0
 201.536132812 253 l 0
 241.579101562 352 l 0
 280.579101562 352 l 0
 241.536132812 253 l 0
 288.536132812 253 l 0
 279.608398438 211 l 0
 224.608398438 211 l 0
 194.454101562 135 l 0
 245.454101562 135 l 0
 236.52734375 93 l 0
 177.52734375 93 l 0
 136.420898438 -11 l 0
 97.4208984375 -11 l 0
 138.52734375 93 l 0
 76.52734375 93 l 0
 35.4208984375 -11 l 0
 -3.5791015625 -11 l 0
 37.52734375 93 l 0
 -9.47265625 93 l 0
 -0.5458984375 135 l 0
 54.4541015625 135 l 0
 83.6083984375 211 l 0
 33.6083984375 211 l 0
 42.5361328125 253 l 0
 101.536132812 253 l 0
 140.579101562 352 l 0
EndSplineSet
EndChar

StartChar: currency
Encoding: 172 164 171
Width: 278
VWidth: 0
Flags: HMW
LayerCount: 2
Fore
SplineSet
166.34765625 134 m 0
 190.173828125 152 197.826171875 188 182.439453125 205 c 0
 168.690429688 225 132.690429688 225 110.439453125 205 c 0
 87.826171875 188 80.173828125 152 95.560546875 135 c 0
 109.309570312 115 145.309570312 115 166.34765625 134 c 0
224.990234375 217 m 0
 236.0390625 189 228.173828125 152 205.009765625 123 c 0
 228.6328125 93 l 0
 195.256835938 63 l 0
 170.845703125 94 l 0
 139.232421875 77 99.232421875 77 75.845703125 94 c 0
 38.2568359375 63 l 0
 17.6328125 93 l 0
 54.009765625 123 l 0
 43.44921875 158 48.9755859375 184 73.990234375 217 c 0
 50.3671875 247 l 0
 83.7431640625 277 l 0
 108.154296875 246 l 0
 140.767578125 263 169.98046875 264 203.154296875 246 c 0
 240.743164062 277 l 0
 261.3671875 247 l 0
 224.990234375 217 l 0
EndSplineSet
EndChar

StartChar: yen
Encoding: 173 165 172
Width: 278
VWidth: 0
Flags: HMW
LayerCount: 2
Fore
SplineSet
43.728515625 355 m 0
 100.728515625 355 l 0
 141.744140625 181 l 0
 253.728515625 355 l 0
 310.728515625 355 l 0
 187.681640625 176 l 0
 244.681640625 176 l 0
 238.729492188 148 l 0
 156.729492188 148 l 0
 149.502929688 114 l 0
 231.502929688 114 l 0
 225.55078125 86 l 0
 143.55078125 86 l 0
 125.271484375 0 l 0
 78.271484375 0 l 0
 96.55078125 86 l 0
 15.55078125 86 l 0
 21.5029296875 114 l 0
 102.502929688 114 l 0
 109.729492188 148 l 0
 28.7294921875 148 l 0
 34.681640625 176 l 0
 90.681640625 176 l 0
 43.728515625 355 l 0
EndSplineSet
EndChar

StartChar: cent
Encoding: 174 162 173
Width: 278
VWidth: 0
Flags: HMW
LayerCount: 2
Fore
SplineSet
58.0048828125 1 m 0
 -14.830078125 30 5.67578125 150 57.4921875 215 c 0
 83.08203125 246 137.521484375 281 193.182617188 270 c 0
 215.748046875 315 l 0
 235.748046875 315 l 0
 210.120117188 265 l 0
 249.719726562 249 262.067382812 213 254.565429688 173 c 0
 212.565429688 173 l 0
 219.091796875 199 212.705078125 216 192.04296875 227 c 0
 93.5947265625 32 l 0
 140.193359375 16 183.208007812 49 194.985351562 95 c 0
 237.985351562 95 l 0
 226.01953125 34 157.266601562 -26 74.517578125 -6 c 0
 48.251953125 -59 l 0
 28.251953125 -59 l 0
 58.0048828125 1 l 0
78.5078125 41 m 0
 174.318359375 233 l 0
 147.806640625 240 110.767578125 221 95.7294921875 202 c 0
 68.71484375 169 33.6474609375 84 78.5078125 41 c 0
EndSplineSet
EndChar

StartChar: dollar
Encoding: 175 36 174
Width: 278
VWidth: 0
Flags: HMW
LayerCount: 2
Fore
SplineSet
128.927734375 212 m 0
 153.796875 329 l 0
 95.796875 329 39.6904296875 225 128.927734375 212 c 0
203.12109375 100 m 0
 213.32421875 148 175.811523438 155 148.299804688 162 c 0
 120.666992188 32 l 0
 164.3046875 35 195.043945312 62 203.12109375 100 c 0
83.015625 -4 m 0
 27.078125 1 -13.3330078125 32 5.0966796875 114 c 0
 42.0966796875 114 l 0
 31.193359375 58 54.7294921875 37 90.8798828125 33 c 0
 119.575195312 168 l 0
 63.1259765625 180 33.5888671875 201 43.5556640625 262 c 0
 51.8203125 315 101.598632812 361 162.0859375 368 c 0
 167.612304688 394 l 0
 197.612304688 394 l 0
 192.0859375 368 l 0
 238.0859375 368 290.984375 344 273.193359375 265 c 0
 232.193359375 265 l 0
 239.6953125 305 227.434570312 332 183.796875 329 c 0
 157.864257812 207 l 0
 247.250976562 190 254.811523438 155 245.396484375 106 c 0
 237.043945312 62 192.440429688 -2 113.227539062 -3 c 0
 102.387695312 -54 l 0
 72.3876953125 -54 l 0
 83.015625 -4 l 0
EndSplineSet
EndChar

StartChar: less
Encoding: 187 60 186
Width: 292
VWidth: 0
Flags: HMW
LayerCount: 2
Fore
SplineSet
291.719726562 242 m 0
 283.004882812 201 l 0
 73 121 l 0
 248.995117188 41 l 0
 240.280273438 0 l 0
 18.5361328125 100 l 0
 27.4638671875 142 l 0
 291.719726562 242 l 0
EndSplineSet
EndChar

StartChar: greater
Encoding: 188 62 187
Width: 292
VWidth: 0
Flags: HMW
LayerCount: 2
Fore
SplineSet
272.463867188 142 m 0
 263.536132812 100 l 0
 -0.7197265625 0 l 0
 8.2080078125 42 l 0
 218 121 l 0
 42.0048828125 201 l 0
 50.7197265625 242 l 0
 272.463867188 142 l 0
EndSplineSet
EndChar

StartChar: mu
Encoding: 189 181 188
Width: 278
VWidth: 0
Flags: HMW
LayerCount: 2
Fore
SplineSet
119.541015625 32 m 0
 178.541015625 32 203.294921875 92 207.545898438 112 c 0
 239.641601562 263 l 0
 281.641601562 263 l 0
 225.739257812 0 l 0
 183.739257812 0 l 0
 190.329101562 31 l 0
 175.927734375 15 149.1640625 2 140.1015625 -3 c 0
 131.0390625 -8 86.1259765625 -17 59.314453125 -2 c 0
 36.3583984375 -110 l 0
 -5.6416015625 -110 l 0
 73.6416015625 263 l 0
 115.641601562 263 l 0
 77.59375 84 l 0
 69.3046875 45 84.541015625 32 119.541015625 32 c 0
EndSplineSet
EndChar

StartChar: slash
Encoding: 190 47 189
Width: 139
VWidth: 0
Flags: HMW
LayerCount: 2
Fore
SplineSet
-42.7919921875 -11 m 0
 152.791992188 354 l 0
 180.791992188 354 l 0
 -14.7919921875 -11 l 0
 -42.7919921875 -11 l 0
EndSplineSet
EndChar

StartChar: backslash
Encoding: 191 92 190
Width: 139
VWidth: 0
Flags: HMW
LayerCount: 2
Fore
SplineSet
62.7919921875 365 m 0
 103.208007812 0 l 0
 75.2080078125 0 l 0
 34.7919921875 365 l 0
 62.7919921875 365 l 0
EndSplineSet
EndChar

StartChar: AE
Encoding: 192 198 191
Width: 500
VWidth: 0
Flags: HMW
LayerCount: 2
Fore
SplineSet
108.666992188 148 m 0
 232.666992188 148 l 0
 269.651367188 322 l 0
 217.651367188 322 l 0
 108.666992188 148 l 0
82.7392578125 106 m 0
 16.2080078125 0 l 0
 -32.7919921875 0 l 0
 195.791992188 365 l 0
 510.791992188 365 l 0
 501.651367188 322 l 0
 316.651367188 322 l 0
 292.208007812 207 l 0
 465.208007812 207 l 0
 456.280273438 165 l 0
 283.280273438 165 l 0
 257.135742188 42 l 0
 445.135742188 42 l 0
 436.208007812 0 l 0
 201.208007812 0 l 0
 223.739257812 106 l 0
 82.7392578125 106 l 0
EndSplineSet
EndChar

StartChar: OE
Encoding: 193 338 192
Width: 500
VWidth: 0
Flags: HMW
LayerCount: 2
Fore
SplineSet
228.828125 31 m 0
 176.224609375 -33 75.6884765625 -12 46.041015625 32 c 0
 -7.3798828125 110 14.3154296875 245 110.020507812 333 c 0
 168.498046875 387 274.923828125 389 292.807617188 332 c 0
 299.822265625 365 l 0
 515.822265625 365 l 0
 506.89453125 323 l 0
 337.89453125 323 l 0
 313.23828125 207 l 0
 470.23828125 207 l 0
 461.310546875 165 l 0
 304.310546875 165 l 0
 278.166015625 42 l 0
 450.166015625 42 l 0
 441.239257812 0 l 0
 222.239257812 0 l 0
 228.828125 31 l 0
84.779296875 59 m 0
 102.615234375 30 180.451171875 1 241.793945312 92 c 0
 280.0546875 272 l 0
 266.633789062 350 169.484375 354 117.817382812 285 c 0
 60.4501953125 208 49.6201171875 110 84.779296875 59 c 0
EndSplineSet
EndChar

StartChar: Eth
Encoding: 194 208 193
Width: 361
VWidth: 0
Flags: HMW
LayerCount: 2
Fore
SplineSet
154.555664062 171 m 0
 0.5556640625 171 l 0
 7.9951171875 206 l 0
 161.995117188 206 l 0
 154.555664062 171 l 0
EndSplineSet
Refer: 67 68 N 1 0 0 1 0 0 0
EndChar

StartChar: Thorn
Encoding: 195 222 194
Width: 333
VWidth: 0
Flags: HMW
LayerCount: 2
Fore
SplineSet
311.869140625 196 m 0
 287.850585938 83 178.763671875 92 172.763671875 92 c 0
 73.763671875 92 l 0
 54.2080078125 0 l 0
 7.2080078125 0 l 0
 84.7919921875 365 l 0
 131.791992188 365 l 0
 117.975585938 300 l 0
 216.975585938 300 l 0
 222.975585938 300 335.888671875 309 311.869140625 196 c 0
262.657226562 195 m 0
 276.260742188 259 217.047851562 258 208.047851562 258 c 0
 109.047851562 258 l 0
 82.69140625 134 l 0
 181.69140625 134 l 0
 190.69140625 134 249.053710938 131 262.657226562 195 c 0
EndSplineSet
EndChar

StartChar: Eng
Encoding: 196 330 195
Width: 361
VWidth: 0
Flags: HMW
LayerCount: 2
Fore
SplineSet
160.030273438 319 m 0
 153.180664062 315 147.330078125 311 141.267578125 306 c 0
 114.590820312 284 103.213867188 254 93.01171875 206 c 0
 49.224609375 0 l 0
 1.224609375 0 l 0
 78.8076171875 365 l 0
 126.807617188 365 l 0
 118.092773438 324 l 0
 185.271484375 386 283.122070312 390 321.70703125 341 c 0
 372.890625 276 329.654296875 82 250.837890625 17 c 0
 211.036132812 -15 158.3984375 -18 119.712890625 7 c 0
 148.790039062 45 l 0
 174.6015625 30 198.750976562 26 223.21484375 47 c 0
 278.993164062 93 317.489257812 260 278.1171875 310 c 0
 255.494140625 340 202.70703125 341 160.030273438 319 c 0
EndSplineSet
EndChar

StartChar: Hbar
Encoding: 197 294 196
Width: 361
VWidth: 0
Flags: HMW
LayerCount: 2
Fore
SplineSet
40.888671875 309 m 0
 382.888671875 309 l 0
 379.487304688 293 l 0
 37.4873046875 293 l 0
 40.888671875 309 l 0
EndSplineSet
Refer: 71 72 N 1 0 0 1 0 0 0
EndChar

StartChar: Lslash
Encoding: 198 321 197
Width: 278
VWidth: 0
Flags: HMW
LayerCount: 2
Fore
SplineSet
7.2080078125 0 m 0
 43.3427734375 170 l 0
 -8.18359375 144 l 0
 -1.2314453125 172 l 0
 49.294921875 198 l 0
 84.7919921875 365 l 0
 131.791992188 365 l 0
 102.033203125 225 l 0
 174.110351562 263 l 0
 168.159179688 235 l 0
 96.08203125 197 l 0
 63.1357421875 42 l 0
 243.135742188 42 l 0
 234.208007812 0 l 0
 7.2080078125 0 l 0
EndSplineSet
EndChar

StartChar: Oslash
Encoding: 199 216 198
Width: 389
VWidth: 0
Flags: HMW
LayerCount: 2
Fore
SplineSet
225.58203125 44 m 0
 304.809570312 78 364.37890625 203 318.021484375 286 c 0
 85.74609375 73 l 0
 119.756835938 26 171.693359375 21 225.58203125 44 c 0
357.672851562 322 m 0
 412.60546875 237 369.485351562 100 292.51953125 39 c 0
 209.703125 -26 101.916015625 -25 47.51953125 39 c 0
 1.3798828125 -4 l 0
 -11.64453125 10 l 0
 36.7080078125 54 l 0
 -3.8623046875 136 27.2822265625 259 108.5234375 326 c 0
 159.451171875 368 268.315429688 405 344.436523438 335 c 0
 385.513671875 373 l 0
 398.538085938 359 l 0
 357.672851562 322 l 0
307.421875 302 m 0
 260.474609375 354 183.436523438 335 140.997070312 300 c 0
 69.4560546875 241 52.2626953125 146 76.3603515625 90 c 0
 307.421875 302 l 0
EndSplineSet
EndChar

StartChar: Tbar
Encoding: 200 358 199
Width: 305
VWidth: 0
Flags: HMW
LayerCount: 2
Fore
SplineSet
61.3671875 156 m 0
 252.497070312 246 l 0
 247.208007812 207 l 0
 52.439453125 114 l 0
 61.3671875 156 l 0
EndSplineSet
Refer: 83 84 N 1 0 0 1 0 0 0
EndChar

StartChar: cedilla
Encoding: 210 184 209
Width: 166
VWidth: 0
Flags: HMW
LayerCount: 2
Fore
SplineSet
13.7373046875 -88 m 0
 27.9248046875 -73 l 0
 41.7373046875 -88 55.673828125 -93 67.673828125 -93 c 0
 105.82421875 -97 117.577148438 -37 82.5390625 -56 c 0
 68.5390625 -56 l 0
 96.37890625 -5 l 0
 117.37890625 -5 l 0
 100.790039062 -36 l 0
 171.828125 -17 150.998046875 -115 66.6357421875 -112 c 0
 42.4228515625 -113 27.548828125 -103 13.7373046875 -88 c 0
EndSplineSet
EndChar

StartChar: Euro
Encoding: 219 8364 215
Width: 278
VWidth: 0
Flags: HMW
LayerCount: 2
Fore
SplineSet
46.6064453125 30 m 0
 27.283203125 52 16.296875 85 18.8623046875 130 c 0
 -17.1376953125 130 l 0
 -4.123046875 163 l 0
 20.876953125 163 l 0
 22.427734375 175 25.978515625 187 27.6787109375 195 c 0
 -3.3212890625 195 l 0
 9.6923828125 228 l 0
 37.6923828125 228 l 0
 51.8330078125 271 83.759765625 313 118.861328125 337 c 0
 183.576171875 378 254.576171875 378 305.19921875 348 c 0
 285.634765625 303 l 0
 253.01171875 333 185.711914062 341 135.146484375 296 c 0
 113.3203125 278 94.58203125 251 87.6923828125 228 c 0
 253.692382812 228 l 0
 240.678710938 195 l 0
 76.6787109375 195 l 0
 72.3408203125 184 69.5146484375 166 69.876953125 163 c 0
 226.876953125 163 l 0
 212.862304688 130 l 0
 67.8623046875 130 l 0
 66.6982421875 101 70.234375 80 82.833984375 64 c 0
 108.032226562 32 184.693359375 21 233.55859375 58 c 0
 223.568359375 11 l 0
 167.041992188 -15 77.529296875 -8 46.6064453125 30 c 0
EndSplineSet
EndChar

StartChar: exclamdown
Encoding: 220 161 216
Width: 166
VWidth: 0
Flags: HMW
LayerCount: 2
Fore
SplineSet
99.3232421875 263 m 0
 141.323242188 263 l 0
 129.844726562 209 l 0
 87.8447265625 209 l 0
 99.3232421875 263 l 0
61.275390625 84 m 0
 93.6806640625 180 l 0
 111.680664062 180 l 0
 103.275390625 84 l 0
 62.6767578125 -107 l 0
 20.6767578125 -107 l 0
 61.275390625 84 l 0
EndSplineSet
EndChar

StartChar: dotlessj
Encoding: 221 567 217
Width: 111
VWidth: 0
Flags: HMW
LayerCount: 2
Fore
SplineSet
52.9375 -32 m 0
 40.1845703125 -92 25.3583984375 -110 -49.6416015625 -110 c 0
 -41.564453125 -72 l 0
 -9.990234375 -74 3.498046875 -67 12.212890625 -26 c 0
 73.6416015625 263 l 0
 115.641601562 263 l 0
 52.9375 -32 l 0
EndSplineSet
EndChar

StartChar: kgreenlandic
Encoding: 222 312 218
Width: 250
VWidth: 0
Flags: HMW
LayerCount: 2
Fore
SplineSet
61.951171875 263 m 0
 103.951171875 263 l 0
 80.14453125 151 l 0
 223.951171875 263 l 0
 278.951171875 263 l 0
 157.970703125 169 l 0
 228.048828125 0 l 0
 177.048828125 0 l 0
 118.168945312 137 l 0
 68.4541015625 96 l 0
 48.048828125 0 l 0
 6.048828125 0 l 0
 61.951171875 263 l 0
EndSplineSet
EndChar

StartChar: germandbls
Encoding: 223 223 219
Width: 305
VWidth: 0
Flags: HMW
LayerCount: 2
Fore
SplineSet
112.444335938 -8 m 0
 120.521484375 30 l 0
 156.458984375 25 174.372070312 34 188.922851562 46 c 0
 227.9375 79 230.501953125 124 224.752929688 144 c 0
 215.705078125 172 183.916992188 173 155.4921875 171 c 0
 164.419921875 213 l 0
 235.844726562 215 256.323242188 269 249.211914062 292 c 0
 235.3515625 335 179.713867188 332 153.25 311 c 0
 136.487304688 298 126.236328125 278 124.748046875 271 c 0
 67.1455078125 0 l 0
 25.1455078125 0 l 0
 82.748046875 271 l 0
 86.1484375 287 96.8876953125 314 122.3515625 335 c 0
 183.5546875 383 277.853515625 375 291.462890625 312 c 0
 298.448242188 279 284.057617188 216 233.65625 200 c 0
 254.10546875 188 272.067382812 169 271.627929688 134 c 0
 271.275390625 90 244.709960938 45 220.034179688 23 c 0
 199.208007812 5 173.744140625 -16 112.444335938 -8 c 0
EndSplineSet
EndChar

StartChar: ae
Encoding: 224 230 220
Width: 444
VWidth: 0
Flags: HMW
LayerCount: 2
Fore
SplineSet
383.572265625 157 m 0
 394.263671875 212 359.577148438 237 325.577148438 237 c 0
 279.364257812 236 250.712890625 200 239.572265625 157 c 0
 383.572265625 157 l 0
181.206054688 80 m 0
 192.68359375 134 l 0
 162.1328125 122 96.7705078125 125 64.669921875 101 c 0
 46.90625 88 34.8291015625 50 56.0654296875 37 c 0
 77.08984375 23 132.02734375 18 181.206054688 80 c 0
281.153320312 28 m 0
 318.153320312 28 350.25390625 52 363.055664062 84 c 0
 407.055664062 84 l 0
 380.515625 25 337.138671875 -5 277.076171875 -10 c 0
 245.438476562 -13 199.689453125 7 188.978515625 46 c 0
 142.225585938 -14 45.6748046875 -26 17.1142578125 9 c 0
 -16.1708984375 50 8.45703125 100 36.1962890625 127 c 0
 75.2734375 165 171.872070312 149 201.82421875 177 c 0
 205.4375 194 l 0
 217.190429688 254 86.3408203125 250 77.88671875 182 c 0
 37.88671875 182 l 0
 49.3642578125 236 93.37890625 269 163.016601562 272 c 0
 195.229492188 273 236.890625 262 242.514648438 232 c 0
 268.828125 257 305.803710938 271 341.016601562 272 c 0
 385.229492188 273 410.978515625 253 421.963867188 220 c 0
 430.224609375 193 428.572265625 157 418.0703125 117 c 0
 231.0703125 117 l 0
 220.717773438 73 235.153320312 28 281.153320312 28 c 0
EndSplineSet
EndChar

StartChar: oe
Encoding: 225 339 221
Width: 472
VWidth: 0
Flags: HMW
LayerCount: 2
Fore
SplineSet
174.052734375 56 m 0
 208.342773438 95 226.37109375 161 214.448242188 199 c 0
 199.588867188 242 122.076171875 249 84.9609375 192 c 0
 61.095703125 155 44.193359375 99 63.6279296875 54 c 0
 76.4638671875 25 140.975585938 18 174.052734375 56 c 0
406.733398438 158 m 0
 409.110351562 188 405.149414062 207 394.274414062 217 c 0
 378.951171875 239 342.163085938 240 305.849609375 215 c 0
 286.0859375 202 266.985351562 178 258.733398438 158 c 0
 406.733398438 158 l 0
213.71484375 45 m 0
 135.860351562 -39 48.599609375 -12 27.1015625 28 c 0
 -14.3193359375 106 33.5986328125 195 70.462890625 232 c 0
 116.453125 279 228.06640625 296 251.700195312 219 c 0
 316.090820312 282 402.641601562 294 442.462890625 232 c 0
 458.936523438 206 452.670898438 153 443.231445312 118 c 0
 250.231445312 118 l 0
 241.303710938 76 252.627929688 54 265.65234375 40 c 0
 293.188476562 19 329.250976562 24 354.864257812 41 c 0
 367.203125 52 378.965820312 65 387.791992188 83 c 0
 431.791992188 83 l 0
 413.990234375 51 401.1015625 28 368.0625 9 c 0
 292.922851562 -34 228.149414062 0 213.71484375 45 c 0
EndSplineSet
EndChar

StartChar: eth
Encoding: 226 240 222
Width: 278
VWidth: 0
Flags: HMW
LayerCount: 2
Fore
SplineSet
51.1591796875 128 m 0
 35.79296875 51 70.3291015625 30 102.541992188 31 c 0
 146.541992188 31 179.91796875 61 197.009765625 132 c 0
 202.024414062 165 209.77734375 225 143.203125 227 c 0
 86.6279296875 229 59.44921875 167 51.1591796875 128 c 0
159.91796875 268 m 0
 155.10546875 283 147.444335938 294 137.357421875 303 c 0
 75.255859375 279 l 0
 67.08203125 297 l 0
 122.970703125 320 l 0
 113.883789062 329 99.583984375 337 86.646484375 342 c 0
 105.172851562 368 l 0
 128.53515625 365 144.41015625 355 165.583984375 337 c 0
 224.685546875 361 l 0
 232.434570312 341 l 0
 183.182617188 321 l 0
 311.724609375 173 221.827148438 -10 92.8271484375 -10 c 0
 4.8896484375 -5 -7.2314453125 65 5.3720703125 129 c 0
 29.6279296875 229 93.1298828125 269 159.91796875 268 c 0
EndSplineSet
EndChar

StartChar: thorn
Encoding: 227 254 223
Width: 278
VWidth: 0
Flags: HMW
LayerCount: 2
Fore
SplineSet
98.2119140625 232 m 0
 157.690429688 286 228.477539062 285 259.211914062 232 c 0
 284.072265625 189 281.516601562 97 213.850585938 28 c 0
 159.947265625 -28 70.28515625 -17 54.8505859375 28 c 0
 25.517578125 -110 l 0
 -16.482421875 -110 l 0
 84.482421875 365 l 0
 126.482421875 365 l 0
 98.2119140625 232 l 0
216.110351562 208 m 0
 195.549804688 243 144.549804688 243 107.772460938 197 c 0
 79.12109375 161 58.87890625 94 84.9521484375 52 c 0
 106.9375 19 150.212890625 25 182.58984375 55 c 0
 225.666992188 93 237.458984375 172 216.110351562 208 c 0
EndSplineSet
EndChar

StartChar: eng
Encoding: 228 331 224
Width: 278
VWidth: 0
Flags: HMW
LayerCount: 2
Fore
SplineSet
259.52734375 166 m 0
 221.479492188 -13 l 0
 214.040039062 -48 203.513671875 -74 185.112304688 -90 c 0
 162.287109375 -108 130.499023438 -107 103.987304688 -100 c 0
 120.064453125 -62 l 0
 134.213867188 -66 150.7890625 -68 160.489257812 -60 c 0
 171.40234375 -51 175.015625 -34 179.479492188 -13 c 0
 217.1015625 164 l 0
 222.840820312 191 221.879882812 210 213.217773438 221 c 0
 197.255859375 240 150.619140625 237 125.3671875 217 c 0
 108.178710938 202 96.2900390625 179 89.701171875 148 c 0
 58.2431640625 0 l 0
 16.2431640625 0 l 0
 72.1455078125 263 l 0
 109.145507812 263 l 0
 101.91796875 229 l 0
 107.193359375 235 112.255859375 240 117.106445312 244 c 0
 160.758789062 280 228.970703125 281 255.744140625 247 c 0
 270.706054688 228 267.178710938 202 259.52734375 166 c 0
EndSplineSet
EndChar

StartChar: hbar
Encoding: 229 295 225
Width: 278
VWidth: 0
Flags: HMW
LayerCount: 2
Fore
SplineSet
40.888671875 309 m 0
 188.888671875 309 l 0
 185.487304688 293 l 0
 37.4873046875 293 l 0
 40.888671875 309 l 0
EndSplineSet
Refer: 103 104 N 1 0 0 1 0 0 0
EndChar

StartChar: lslash
Encoding: 230 322 226
Width: 111
VWidth: 0
Flags: HMW
LayerCount: 2
Fore
SplineSet
72.7919921875 365 m 0
 114.791992188 365 l 0
 83.12109375 216 l 0
 117.159179688 235 l 0
 111.419921875 208 l 0
 77.3818359375 189 l 0
 37.2080078125 0 l 0
 -4.7919921875 0 l 0
 30.2802734375 165 l 0
 -5.5458984375 147 l 0
 -1.01953125 173 l 0
 36.01953125 192 l 0
 72.7919921875 365 l 0
EndSplineSet
EndChar

StartChar: oslash
Encoding: 231 248 227
Width: 305
VWidth: 0
Flags: HMW
LayerCount: 2
Fore
SplineSet
59.5654296875 73 m 0
 201.8359375 206 l 0
 186.125 245 122 235 96.623046875 205 c 0
 77.9462890625 183 51.53125 134 59.5654296875 73 c 0
238.0625 240 m 0
 275.501953125 275 l 0
 287.100585938 259 l 0
 247.236328125 222 l 0
 274.545898438 167 244.140625 71 199.212890625 29 c 0
 150.22265625 -18 71.7353515625 -25 32.5126953125 21 c 0
 -2.501953125 -12 l 0
 -14.1005859375 4 l 0
 20.9130859375 37 l 0
 0.6044921875 92 11.3955078125 171 69.57421875 233 c 0
 113.352539062 279 200.264648438 288 238.0625 240 c 0
176.227539062 62 m 0
 195.966796875 89 222.231445312 142 207.372070312 185 c 0
 67.314453125 53 l 0
 88.2998046875 20 149.150390625 24 176.227539062 62 c 0
EndSplineSet
EndChar

StartChar: tbar
Encoding: 232 359 228
Width: 139
VWidth: 0
Flags: HMW
LayerCount: 2
Fore
SplineSet
-10.869140625 117 m 0
 130.584960938 185 l 0
 127.719726562 148 l 0
 -16.1591796875 78 l 0
 -10.869140625 117 l 0
EndSplineSet
Refer: 115 116 N 1 0 0 1 0 0 0
EndChar

StartChar: ogonek
Encoding: 242 731 238
Width: 166
VWidth: 0
Flags: HMW
LayerCount: 2
Fore
SplineSet
72.7666015625 7 m 0
 106.766601562 7 l 0
 71.8779296875 -16 47.7763671875 -40 56.1630859375 -57 c 0
 69.125 -76 88.69921875 -78 128.651367188 -50 c 0
 122.69921875 -78 l 0
 78.53515625 -107 42.7236328125 -92 29.5498046875 -74 c 0
 12.4384765625 -51 39.8779296875 -16 72.7666015625 7 c 0
EndSplineSet
EndChar

StartChar: florin
Encoding: 251 402 244
Width: 278
VWidth: 0
Flags: HMW
LayerCount: 2
Fore
SplineSet
318.022460938 357 m 0
 292.520507812 317 l 0
 253.471679688 345 223.907226562 300 214.379882812 274 c 0
 197.240234375 231 l 0
 252.240234375 231 l 0
 244.587890625 195 l 0
 182.587890625 195 l 0
 95.400390625 -27 l 0
 72.072265625 -85 7.4208984375 -121 -40.1162109375 -100 c 0
 -24.1884765625 -58 l 0
 9.1982421875 -75 35.9609375 -62 57.8642578125 -6 c 0
 136.587890625 195 l 0
 81.587890625 195 l 0
 89.240234375 231 l 0
 151.240234375 231 l 0
 173.143554688 287 l 0
 196.471679688 345 268.037109375 390 318.022460938 357 c 0
EndSplineSet
EndChar

StartChar: questiondown
Encoding: 252 191 245
Width: 305
VWidth: 0
Flags: HMW
LayerCount: 2
Fore
SplineSet
209.283203125 211 m 0
 167.283203125 211 l 0
 178.336914062 263 l 0
 220.336914062 263 l 0
 209.283203125 211 l 0
194.766601562 138 m 0
 177.225585938 79 156.564453125 90 103.723632812 39 c 0
 78.41015625 14 66.4580078125 -14 72.5693359375 -37 c 0
 85.154296875 -86 157.342773438 -71 179.08203125 -44 c 0
 193.6953125 -27 199.883789062 -12 203.984375 12 c 0
 247.984375 12 l 0
 244.095703125 -11 233.318359375 -57 183.94140625 -87 c 0
 141.415039062 -113 80.990234375 -115 45.154296875 -86 c 0
 10.318359375 -57 22.2841796875 4 53.361328125 42 c 0
 93.3515625 89 140.264648438 98 149.766601562 138 c 0
 155.71875 166 l 0
 200.71875 166 l 0
 194.766601562 138 l 0
EndSplineSet
EndChar

StartChar: dotlessi
Encoding: 253 305 246
Width: 111
VWidth: 0
Flags: HMW
LayerCount: 2
Fore
SplineSet
6.048828125 0 m 0
 61.951171875 263 l 0
 103.951171875 263 l 0
 48.048828125 0 l 0
 6.048828125 0 l 0
EndSplineSet
EndChar

StartChar: fi
Encoding: 254 64257 247
Width: 250
VWidth: 0
Flags: HMW
LayerCount: 2
Fore
SplineSet
253.732421875 365 m 0
 242.041015625 310 l 0
 200.041015625 310 l 0
 211.732421875 365 l 0
 253.732421875 365 l 0
190.051757812 263 m 0
 232.051757812 263 l 0
 176.149414062 0 l 0
 134.149414062 0 l 0
 190.051757812 263 l 0
158.8046875 323 m 0
 143.655273438 327 116.229492188 325 110.065429688 296 c 0
 103.051757812 263 l 0
 146.051757812 263 l 0
 137.124023438 221 l 0
 94.1240234375 221 l 0
 47.1494140625 0 l 0
 5.1494140625 0 l 0
 52.1240234375 221 l 0
 17.1240234375 221 l 0
 26.0517578125 263 l 0
 61.0517578125 263 l 0
 68.916015625 300 l 0
 76.7802734375 337 118.495117188 378 167.094726562 362 c 0
 158.8046875 323 l 0
EndSplineSet
EndChar

StartChar: fl
Encoding: 255 64258 248
Width: 250
VWidth: 0
Flags: HMW
LayerCount: 2
Fore
SplineSet
211.732421875 365 m 0
 253.732421875 365 l 0
 176.149414062 0 l 0
 134.149414062 0 l 0
 211.732421875 365 l 0
158.8046875 323 m 0
 138.8671875 328 115.8046875 323 110.065429688 296 c 0
 103.051757812 263 l 0
 146.051757812 263 l 0
 137.124023438 221 l 0
 94.1240234375 221 l 0
 47.1494140625 0 l 0
 5.1494140625 0 l 0
 52.1240234375 221 l 0
 17.1240234375 221 l 0
 26.0517578125 263 l 0
 61.0517578125 263 l 0
 68.916015625 300 l 0
 76.7802734375 337 117.495117188 378 167.094726562 362 c 0
 158.8046875 323 l 0
EndSplineSet
EndChar

